<?xml version="1.0" standalone="no"?>
<!DOCTYPE svg PUBLIC "-//W3C//DTD SVG 1.1//EN" "http://www.w3.org/Graphics/SVG/1.1/DTD/svg11.dtd" >
<svg xmlns="http://www.w3.org/2000/svg">
<metadata></metadata>
<defs>
<font id="debonair_inline_nfregular" horiz-adv-x="1165" >
<font-face units-per-em="2048" ascent="1647" descent="-401" />
<missing-glyph horiz-adv-x="1024" />
<glyph horiz-adv-x="2048" />
<glyph horiz-adv-x="2048" />
<glyph unicode="&#xd;" horiz-adv-x="2048" />
<glyph unicode=" "  horiz-adv-x="1024" />
<glyph unicode="&#x09;" horiz-adv-x="1024" />
<glyph unicode="&#xa0;" horiz-adv-x="1024" />
<glyph unicode="!" horiz-adv-x="374" d="M49 139q0 59 41 98t98 39q59 0 98.5 -39t39.5 -98q0 -57 -39 -98t-99 -41q-59 0 -99 40t-40 99zM49 1395q0 59 41 97t98 38q59 0 98.5 -39t39.5 -102l-109 -1002h-59l-54 500q-14 127 -34.5 252t-20.5 256zM109 139q0 -25 13 -44t36 -29v145q-23 -10 -36 -29.5t-13 -42.5 zM109 1395l49 -453v522q-23 -10 -36 -26.5t-13 -42.5zM217 66q23 10 36 29t13 44t-13 44.5t-36 27.5v-145zM217 940l25 227q6 55 15 116t9 116q0 45 -49 65v-524z" />
<glyph unicode="&#x22;" horiz-adv-x="647" d="M49 1167v359h549l-233 -359h-70v271l-176 -271h-70zM111 1350l36 116h-36v-116zM178 1366l64 100h-31zM356 1350l37 116h-37v-116zM424 1366l63 100h-30z" />
<glyph unicode="#" horiz-adv-x="1093" d="M49 2l168 780h-149v68h163l41 188h-147v68h162l90 418h260l-90 -418h88l90 418h260l-90 -418h149v-68h-163l-41 -188h147v-68h-162l-168 -780h-260l168 780h-88l-168 -780h-260zM127 63h37l299 1399h-37zM221 63h37l301 1399h-35zM475 63h37l299 1399h-37zM492 850h88 l41 188h-89zM569 63h37l301 1399h-35z" />
<glyph unicode="$" horiz-adv-x="897" d="M49 147v486h62v-166q0 -20 15 -47t36.5 -51.5t44 -46t39.5 -31.5q41 -29 89 -45.5t99 -16.5h27v488q-70 29 -133.5 60.5t-112.5 76.5t-79 105.5t-30 148.5q0 80 26 147.5t72 118.5t111.5 82t145.5 37v141h59v-145q76 -8 141.5 -47t110.5 -99v170h59v-485h-59v189 q0 14 -11 34.5t-26.5 41t-31 39t-25.5 26.5q-68 59 -158 72v-435q25 -12 51.5 -23t51.5 -24q106 -51 165.5 -148.5t59.5 -213.5q0 -166 -86 -267.5t-242 -140.5v-338h-59v332h-23q-98 0 -185 45t-142 123v-193h-62zM166 1079q12 -94 62.5 -150.5t117 -94t141 -65.5 t137 -65.5t103.5 -93t41 -147.5v-10q2 6 6 19t8 28.5t6.5 31t2.5 21.5q0 31 -14.5 61.5t-33.5 53.5q-23 27 -75 58.5t-113 63t-121.5 59.5t-95.5 46q-57 29 -101 77t-71 107zM211 1126q10 -29 24.5 -54t34.5 -48q27 -31 81.5 -64.5t117.5 -66.5t124.5 -61.5t102.5 -49.5 l28 -16t26 -18q-31 53 -77 91t-98.5 66.5t-108.5 51t-105.5 47t-89.5 53t-60 69.5zM242 1241q0 -49 19.5 -83t51 -58.5t70.5 -42t78 -33.5v410q-43 -4 -83 -16.5t-69.5 -36t-48 -58.5t-18.5 -82zM520 240q82 20 134.5 74.5t52.5 142.5q0 55 -13.5 90t-38 59.5t-59.5 42 t-76 39.5v-448z" />
<glyph unicode="%" horiz-adv-x="1130" d="M49 1036v283q0 92 62.5 149.5t152.5 57.5q88 0 150.5 -58.5t62.5 -148.5v-283q0 -90 -62.5 -148.5t-150.5 -58.5q-90 0 -152.5 57.5t-62.5 149.5zM111 1032q0 -25 11.5 -50.5t27.5 -43.5q0 2 -1.5 7t-2.5 28.5t-1 73v139.5v227q-35 -39 -34 -90v-291zM156 -2l553 1530 h264l-553 -1530h-264zM205 950q0 -25 17.5 -42t41.5 -17q25 0 42.5 17.5t17.5 41.5v455q0 25 -18.5 43t-45.5 18q-25 0 -40 -19.5t-15 -41.5v-455zM242 59h34l510 1407h-34zM342 59h37l508 1407h-35zM383 942q35 39 35 90v291q0 51 -35 90v-471zM653 205v282 q0 92 62.5 149.5t152.5 57.5q88 0 150.5 -58t62.5 -149v-282q0 -90 -62.5 -148.5t-150.5 -58.5q-90 0 -152.5 57.5t-62.5 149.5zM715 201q0 -25 11.5 -51t27.5 -44q0 2 -1 7.5t-2 29t-1 72.5v139v228q-35 -39 -35 -90v-291zM809 119q0 -25 17.5 -42.5t41.5 -17.5 q25 0 42.5 17.5t17.5 42.5v454q0 25 -18.5 43.5t-45.5 18.5q-25 0 -40 -19.5t-15 -42.5v-454zM987 111q35 39 35 90v291q0 51 -35 90v-471z" />
<glyph unicode="&#x26;" horiz-adv-x="1562" d="M49 520q0 20 3 42t11 40l56 -20q-6 -14 -8 -29.5t-2 -32.5q0 -70 50 -120t120 -50q45 0 86 23q0 29 -1.5 58.5t-1.5 57.5q0 82 19.5 155t59.5 133.5t100.5 103.5t142.5 65q-70 41 -117 107.5t-47 152.5q0 74 32 132.5t84 100.5t117.5 64.5t133.5 22.5q51 0 109.5 -13.5 t107.5 -41t81 -71.5t32 -106q0 -74 -51.5 -124t-123.5 -50q-53 0 -98 35t-45 90h59q0 -33 30 -49t59 -16q47 0 78.5 33.5t31.5 80.5q0 39 -22.5 71t-57.5 54.5t-74.5 34.5t-72.5 12q-72 0 -109 -43t-37 -112v-252q0 -47 36 -77t81 -30v-59h-16q-23 0 -42.5 5t-39.5 5 q-35 0 -64.5 -15.5t-52 -41t-35 -57t-12.5 -64.5v-219l82 37q16 59 59 100q43 39 97 62q123 49 243.5 100t243.5 104q47 20 68 58q23 39 22 80q0 47 -26.5 84.5t-67.5 54.5l22 55q59 -23 95 -75t36 -115t-30 -115q-16 -29 -42 -48.5t-55 -31.5q-80 -35 -159.5 -69.5 t-161.5 -67.5q53 -12 98 -41t77 -70t50.5 -90t18.5 -104q0 -100 -38 -181t-102.5 -137.5t-150.5 -86t-182 -29.5q-80 0 -155 21.5t-136.5 63t-105.5 103t-64 143.5q-23 -10 -47.5 -15t-48.5 -5q-49 0 -91.5 18.5t-73 49t-48 72.5t-17.5 89zM422 481q0 -76 8 -135t45 -125 v500q-25 -43 -39 -91t-14 -98v-51zM537 145q35 -34 84 -61q-18 29 -29.5 61.5t-11.5 67.5v516q0 35 11 67.5t30 61.5q-49 -27 -84 -61v-652zM580 1214q0 -84 51 -147v285q-25 -31 -38 -64t-13 -74zM639 217q0 -94 61.5 -137t147.5 -43q78 0 150.5 29.5t128 80t89 119 t33.5 148.5q0 51 -20.5 98t-54 81t-80.5 54.5t-99 20.5q-53 0 -104 -22.5t-86 -63.5q4 4 10 4q20 12 50 21t53 9q72 0 115.5 -45t43.5 -116q0 -74 -43 -120t-116 -46q-80 0 -138.5 53t-64.5 133l-76 -35v-223zM690 1012q29 -16 53 -29q-8 16 -13 34.5t-5 39.5v260 q0 68 31 123q-31 -14 -66 -35v-393zM774 485q0 -57 43 -96t101 -39q47 0 74.5 28t27.5 75q0 41 -29.5 72.5t-70.5 31.5q-14 0 -34 -6t-40.5 -14.5t-39 -18.5t-32.5 -16v-17z" />
<glyph unicode="'" horiz-adv-x="401" d="M49 1167v359h303l-233 -359h-70zM111 1350l36 116h-36v-116zM178 1366l64 100h-31z" />
<glyph unicode="(" horiz-adv-x="571" d="M49 180v1016q0 98 36 178t97.5 136.5t144.5 88t177 31.5h18v-59q-80 0 -138 -46t-58 -132v-1409q0 -86 59 -131.5t137 -45.5v-59h-39q-90 0 -170 34t-138 92t-92 137t-34 169zM109 180q0 -47 11 -94t36 -90v1384q-47 -88 -47 -184v-1016zM215 -80q43 -43 92 -72 q-41 59 -41 132v1417q0 74 41 131q-51 -27 -92 -72v-1536z" />
<glyph unicode=")" horiz-adv-x="571" d="M49 -193h19q74 0 126 51.5t52 125.5v1409q0 86 -58.5 132t-138.5 46v59h21q94 0 177 -31.5t144.5 -89t96 -137.5t34.5 -176v-1016q0 -90 -33.5 -169t-92 -137t-138.5 -92t-170 -34h-39v59zM264 -152q25 16 48.5 34t43.5 38v1536q-41 45 -92 72q41 -57 41 -131v-1417 q0 -73 -41 -132zM416 -4q47 88 47 184v1016q0 96 -47 184v-1384z" />
<glyph unicode="*" horiz-adv-x="722" d="M49 1247l19 56l211 -68v51l-195 64l18 57l177 -57v184h59v-221l49 16v205h59v-186l177 57l18 -57l-211 -68l31 -41l194 64l19 -58l-176 -57l108 -150l-47 -34l-131 178l-31 -41l121 -166l-47 -35l-111 150l-108 -150l-47 35l129 180l-49 14l-121 -165l-47 34l108 152z M338 1217l33 -13l20 29l-20 29l-33 -13v-32z" />
<glyph unicode="+" horiz-adv-x="778" d="M49 592v276h201v201h276v-201h203v-276h-203v-203h-276v203h-201zM109 651h200v-202h49v251h-249v-49zM109 760h249v250h-49v-201h-200v-49zM418 449h49v202h203v49h-252v-251zM418 760h252v49h-203v201h-49v-250z" />
<glyph unicode="," horiz-adv-x="376" d="M49 141q0 53 42 95.5t95 42.5q55 0 98.5 -41t43.5 -99q0 -57 -41 -98l-168 -168l-43 43l88 86q-49 10 -82 49t-33 90zM111 137q0 -29 11 -44t36 -27v145q-47 -23 -47 -74zM217 66q23 10 37 29.5t14 45.5q0 20 -15 43t-36 27v-145z" />
<glyph unicode="-" horiz-adv-x="573" d="M49 592v276h475v-276h-475zM109 651h356v49h-356v-49zM109 760h356v49h-356v-49z" />
<glyph unicode="." horiz-adv-x="374" d="M49 111q0 59 41 98t98 39q59 0 98.5 -39t39.5 -98t-39 -98.5t-99 -39.5q-57 0 -98 39t-41 99zM109 111q0 -25 13 -44.5t36 -29.5v145q-23 -10 -36 -29.5t-13 -41.5zM217 37q23 10 36 29.5t13 44.5t-13 44t-36 27v-145z" />
<glyph unicode="/" horiz-adv-x="915" d="M49 -2l553 1530h264l-553 -1530h-264zM135 59h35l510 1407h-35zM236 59h36l508 1407h-35z" />
<glyph unicode="0" horiz-adv-x="1007" d="M49 436v654q0 96 36 177t98.5 138t145.5 89t175 32q94 0 177 -32t144.5 -89t97 -138t35.5 -177v-654q0 -96 -34.5 -177t-96 -138.5t-144.5 -89t-177 -31.5q-96 0 -179 31.5t-144.5 89t-97.5 138.5t-36 177zM109 436q0 -78 30.5 -146.5t83.5 -121.5q-33 53 -49 107.5 t-16 119.5v738q0 53 15 115.5t48 107.5q-53 -53 -82.5 -122t-29.5 -144v-654zM217 389q0 -47 13.5 -96t37.5 -88q0 272 -1 541.5t-1 541.5q0 10 1 17.5t3 17.5q-25 -47 -39 -90t-14 -96v-748zM326 238q0 -78 51 -128.5t129 -50.5q37 0 68.5 14.5t55 39t38 56.5t14.5 69v1050 q0 76 -52 126t-126 50t-126 -51t-52 -125v-1050zM739 201q23 47 38.5 92t15.5 98v746q0 61 -16.5 99t-37.5 91q2 -10 2 -19.5v-19.5v-1050v-18.5t-2 -18.5zM793 172q51 53 78.5 121.5t27.5 142.5v654q0 72 -26.5 139t-77.5 121q27 -51 43 -101.5t16 -109.5v-750 q0 -66 -19.5 -113t-41.5 -104z" />
<glyph unicode="1" horiz-adv-x="673" d="M49 1196l193 330h284v-1467h99v-59h-471v59h96v1362l-131 -225h-70zM309 59h49v1407h-49v-1407zM418 59h49v1407h-49v-1407z" />
<glyph unicode="2" horiz-adv-x="901" d="M49 0l557 1161q16 31 26.5 66t10.5 69q0 37 -13.5 68t-37 53.5t-55 35.5t-66.5 13q-63 0 -110.5 -24.5t-83 -63.5t-65.5 -87t-56 -95h-70l221 377h70l-51 -88q82 39 163 39q80 0 146.5 -29t115 -79t75 -117.5t26.5 -145.5q0 -72 -26.5 -127t-55.5 -119l-395 -848h373v271 h59v-330h-758zM143 59h54l505 1069q8 16 15.5 34t13.5 34q14 39 14 68q0 39 -20 76.5t-49 62.5q14 -25 20 -53.5t6 -57.5q0 -43 -13 -84t-32 -80zM262 59h47q78 166 153 329t152 327q41 86 83 172t77 172q12 29 15.5 54t3.5 54q0 12 -2 17q-8 -23 -16.5 -42.5t-18.5 -39.5z " />
<glyph unicode="3" horiz-adv-x="983" d="M49 1196l219 377h70l-29 -47h602q-92 -141 -181 -282.5t-179 -285.5q82 -10 152.5 -47t122 -95t80 -133t28.5 -157v-90q0 -96 -36 -177t-97.5 -138.5t-143.5 -89t-176 -31.5q-90 0 -158.5 38t-114.5 99.5t-70.5 139t-24.5 159.5h59q0 -61 18.5 -127.5t55.5 -122t90 -91.5 t125 -36q35 0 65.5 7.5t59.5 29.5q35 25 53 63t18 79v487q0 74 -52 126t-126 52h-262l350 563h-293l-157 -270h-68zM324 963h47l311 503h-45zM440 963h43l320 503h-49zM692 131q35 25 53.5 63.5t18.5 79.5v414q0 43 -19.5 80t-52.5 63q25 -49 25 -106v-487q0 -57 -25 -107z M821 242q53 90 53 194v90q0 106 -53 189q0 -6 1 -13.5t1 -13.5v-414q0 -6 -1 -14t-1 -18z" />
<glyph unicode="4" horiz-adv-x="1044" d="M49 561l563 965h269v-905h114v-60h-114v-502h98v-59h-473v59h98v502h-555zM154 621h450v772zM664 59h49v1407h-49v-1407zM772 59h49v1407h-49v-1407z" />
<glyph unicode="5" horiz-adv-x="919" d="M49 436h60q0 -61 18 -127.5t55 -122t90.5 -91.5t124.5 -36q35 0 68 8.5t57 28.5q35 25 53.5 63t18.5 79v487q0 74 -52.5 126t-125.5 52h-240v623h563l29 47h70l-222 -377h-67l156 270h-467v-505h227q88 0 161.5 -37t128 -96.5t85 -137.5t30.5 -164v-90q0 -96 -34.5 -177 t-96 -138.5t-144.5 -89t-177 -31.5q-90 0 -159 38t-115 99.5t-70.5 139t-24.5 159.5zM629 133q33 27 51 63.5t18 77.5v414q0 41 -18 78t-51 63q25 -49 24 -104v-487q0 -55 -24 -105zM756 238q29 43 42 93t13 101v98q0 51 -13.5 101.5t-41.5 93.5v-487z" />
<glyph unicode="6" horiz-adv-x="1007" d="M49 436v654q0 98 36 178t97.5 137t144.5 89t177 32q78 0 144.5 -17.5t127.5 -64.5l76 129h70l-220 -377h-69l115 197q-104 74 -234 73q-37 0 -71.5 -13t-60.5 -36.5t-41 -56.5t-15 -72v-356q45 18 88 24.5t90 6.5q94 0 177 -32t144.5 -89.5t97 -138t35.5 -177.5v-90 q0 -96 -34.5 -177t-96 -138.5t-144.5 -89t-177 -31.5t-177 31.5t-145.5 89t-98.5 137.5t-36 178zM109 436q0 -78 31.5 -150.5t88.5 -125.5q-72 109 -71 239v727q0 131 71 238q-59 -53 -89.5 -125t-30.5 -149v-654zM217 399q0 -98 51 -188q0 272 -1 541.5t-1 541.5l2 21 q-51 -90 -51 -189v-727zM326 238q0 -74 52 -126.5t126 -52.5t126 52.5t52 126.5v487q0 74 -52 126t-126 52t-126 -52t-52 -126v-487zM715 129q35 25 55.5 63.5t20.5 81.5v414q0 43 -20.5 82t-55.5 64q14 -25 20 -52.5t6 -56.5v-487q0 -29 -6 -56.5t-20 -52.5zM848 248 q27 43 39 91t12 97v90q0 49 -12.5 97.5t-38.5 91.5q0 -4 1 -24.5t1 -53.5v-73v-83v-83v-72.5t-1 -54t-1 -23.5z" />
<glyph unicode="7" horiz-adv-x="956" d="M49 1196l219 377h70l-29 -47h598l-379 -1467h76v-59h-457v59h91l356 1407h-320l-155 -270h-70zM299 59h55l357 1407h-56zM416 59h51l362 1407h-57z" />
<glyph unicode="8" horiz-adv-x="1007" d="M49 436v45q0 154 62.5 272.5t214.5 178.5q-47 16 -89 42.5t-76 62.5t-53.5 80t-19.5 97q0 72 37 129.5t94 98.5t127 62.5t133 21.5q70 0 145.5 -17.5t139 -55.5t105.5 -97.5t42 -141.5q0 -51 -19.5 -95t-52 -79.5t-74.5 -62.5t-87 -43q154 -57 217 -178t63 -275v-45 q0 -96 -34.5 -177t-96 -138.5t-144.5 -89t-177 -31.5t-177 31.5t-145.5 89t-98.5 137.5t-36 178zM109 436q0 -49 12 -97t39 -91v467q-27 -43 -39 -91.5t-12 -97.5v-90zM147 1214q0 -57 31 -101t74 -79q-55 84 -55 183q0 47 14 92t41 84q-43 -31 -74 -77t-31 -102zM219 274 q0 -43 19.5 -80.5t54.5 -64.5q-27 53 -27 109v487q0 55 27 109q-35 -27 -54.5 -65t-19.5 -81v-414zM258 1212q0 -47 17.5 -92t48.5 -80q-18 49 -19 101v147q0 51 19 98q-33 -35 -49.5 -80.5t-16.5 -93.5zM326 238q0 -74 52 -126.5t126 -52.5t126 52.5t52 126.5v487 q0 74 -52 126t-126 52t-126 -52t-52 -126v-487zM365 1141q0 -31 9 -62.5t27.5 -57.5t45 -42t61.5 -16q33 0 57.5 17t41 44t25.5 57.5t9 59.5v147q0 31 -9 62.5t-26.5 57.5t-44 41t-61.5 15q-33 0 -57.5 -17t-42 -43t-26.5 -57.5t-9 -58.5v-147zM688 1057q29 35 41 76t12 84 q0 41 -14 81.5t-39 71.5q12 -37 12 -78v-155q0 -41 -12 -80zM715 127q35 25 55.5 64.5t20.5 82.5v414q0 43 -20.5 83t-55.5 65q27 -57 26 -111v-487q0 -53 -26 -111zM745 1034q45 33 76 78t31 102q0 55 -30.5 101.5t-76.5 77.5q33 -45 44.5 -93.5t11.5 -101.5 q0 -39 -16.5 -86t-39.5 -78zM848 680q0 -20 1 -42t1 -38v-350q23 43 36 90t13 96v90q0 49 -13.5 96.5t-35.5 90.5q-2 -6 -2 -14.5v-18.5z" />
<glyph unicode="9" horiz-adv-x="1007" d="M49 997v93q0 98 36 178t97.5 137t144.5 89t177 32t177 -32t144.5 -89t97 -138t35.5 -177v-654q0 -96 -34.5 -177t-96 -138.5t-144.5 -89t-177 -31.5q-72 0 -133.5 15.5t-120.5 54.5l-41 -70h-70l152 258h69l-81 -137q100 -61 213 -62q78 0 133 49.5t55 129.5v354 q-43 -16 -87 -22.5t-89 -6.5q-94 0 -177 32t-145.5 88t-98.5 136t-36 178zM109 997q0 -49 12 -97t39 -91v469q-27 -43 -39 -91t-12 -97v-93zM219 836q0 -43 20.5 -81t53.5 -65q-27 57 -27 111v487q0 55 27 109q-35 -25 -54.5 -64t-19.5 -82v-415zM326 801q0 -74 52 -126 t126 -52t126 52t52 126v487q0 74 -52 126t-126 52q-37 0 -69 -14t-56.5 -38.5t-38.5 -56.5t-14 -69v-487zM739 211q51 86 52 182v740q0 96 -52 182q2 -6 2 -13.5v-13.5v-1050q0 -18 -2 -27zM778 160q57 55 89 125.5t32 150.5v654q0 78 -30.5 150.5t-90.5 125.5 q72 -109 72 -240v-727q0 -131 -72 -239z" />
<glyph unicode=":" horiz-adv-x="374" d="M49 111q0 59 41 98t98 39q59 0 98.5 -39t39.5 -98t-39 -98.5t-99 -39.5q-57 0 -98 39t-41 99zM49 479q0 59 41 98t98 39q59 0 98.5 -39t39.5 -98q0 -57 -39 -98t-99 -41q-59 0 -99 40t-40 99zM109 111q0 -25 13 -44.5t36 -29.5v145q-23 -10 -36 -29.5t-13 -41.5zM109 479 q0 -25 13 -44t36 -29v145q-23 -10 -36 -29.5t-13 -42.5zM217 37q23 10 36 29.5t13 44.5t-13 44t-36 27v-145zM217 406q23 10 36 29t13 44t-13 44.5t-36 27.5v-145z" />
<glyph unicode=";" horiz-adv-x="376" d="M49 141q0 53 42 95.5t95 42.5q55 0 98.5 -41t43.5 -99q0 -57 -41 -98l-168 -168l-43 43l88 86q-49 10 -82 49t-33 90zM49 479q0 59 41 98t98 39q59 0 98.5 -39t39.5 -98q0 -57 -39 -98t-99 -41q-59 0 -99 40t-40 99zM109 479q0 -25 13 -44t36 -29v145q-23 -10 -36 -29.5 t-13 -42.5zM111 137q0 -53 47 -71v145q-23 -10 -35 -29.5t-12 -44.5zM217 66q23 10 37 27.5t14 47.5q0 23 -14 41.5t-37 28.5v-145zM217 406q23 10 36 29t13 44t-13 44.5t-36 27.5v-145z" />
<glyph unicode="&#x3c;" horiz-adv-x="940" d="M49 641v248l842 391v-291l-483 -225l483 -225v-289zM111 682l718 -334v41l-718 334v-41zM111 805l718 336v41l-718 -334v-43zM162 764l667 -309v43l-569 266l569 266v45z" />
<glyph unicode="=" horiz-adv-x="688" d="M4 438v277h680v-277h-680zM4 745v277h680v-277h-680zM63 498h562v49h-562v-49zM63 606h562v49h-562v-49zM63 805h562v49h-562v-49zM63 913h562v50h-562v-50z" />
<glyph unicode="&#x3e;" horiz-adv-x="940" d="M49 250v289l483 225l-483 225v291l842 -391v-248zM111 348l718 334v41l-718 -334v-41zM111 455l667 309l-667 311v-45l569 -266l-569 -266v-43zM111 1141l718 -336v43l-718 334v-41z" />
<glyph unicode="?" horiz-adv-x="843" d="M49 1151q0 78 32 144.5t86 114.5t123.5 75.5t145.5 27.5q74 0 139.5 -30.5t114.5 -82.5t77 -119.5t28 -139.5q0 -70 -25 -137.5t-74 -116.5l-260 -258q-47 -45 -57 -111.5t-10 -126.5h-62q0 53 -2 103.5t-2 103.5q0 66 12.5 145.5t53.5 135.5l192 268q20 29 34.5 59.5 t14.5 65.5q0 37 -13 69.5t-36.5 57t-54.5 39t-68 14.5q-96 0 -172 -42t-123 -128q10 4 22.5 5t22.5 1q59 0 98.5 -39t39.5 -98q0 -57 -39 -98t-99 -41q-59 0 -99 40t-40 99zM109 1149q0 -23 13 -42.5t36 -29.5v146q-49 -20 -49 -74zM211 111q0 59 41 98t98 39q59 0 98 -39 t39 -98t-38.5 -98.5t-98.5 -39.5q-57 0 -98 39t-41 99zM217 1077q23 10 36 29.5t13 44.5t-13 44t-36 28v-146zM270 111q0 -25 13.5 -44.5t35.5 -29.5v145q-23 -10 -36 -29.5t-13 -41.5zM379 37q23 10 36 29.5t13 44.5t-13.5 44t-35.5 27v-145zM379 760q35 55 84 108.5 t95 108.5t78 116.5t32 133.5v14q-6 -49 -42 -107.5t-83 -121t-93.5 -127t-70.5 -125.5zM403 680l250 250q41 41 61.5 96t20.5 113q0 40 -8 71q-4 -84 -43 -150.5t-91 -127t-105.5 -120.5t-84.5 -132z" />
<glyph unicode="@" horiz-adv-x="1935" d="M49 643q0 190 72 358t196.5 292t291.5 197t358 73q190 0 358 -72t293 -197t196.5 -293t71.5 -358q0 -102 -34.5 -196.5t-92 -166t-134.5 -113.5t-159 -42q-57 0 -110 15.5t-99.5 45t-82 72.5t-56.5 96q-10 -51 -37.5 -93t-66.5 -72.5t-87 -47t-100 -16.5 q-80 0 -149.5 26.5t-120.5 73.5t-81 115t-30 149q0 25 3.5 50.5t10.5 59.5t17 79t23 106q20 94 72.5 175t127 140.5t165.5 94.5t188 35q80 0 149.5 -25.5t120.5 -74t81 -115t30 -148.5q0 -39 -9.5 -95t-22.5 -116.5t-26.5 -118t-21.5 -98.5q-6 -29 -15.5 -61.5t-9.5 -61.5 q0 -51 37 -90t90 -39q49 0 83 56.5t54.5 131.5t29.5 149.5t9 109.5q0 94 -12 192.5t-40 192.5t-73 180t-108 158q-37 41 -86 68.5t-104.5 45t-113 25.5t-110.5 8q-113 0 -206 -36.5t-167.5 -99t-132 -147.5t-95.5 -180.5t-57.5 -198t-19.5 -200.5q0 -141 42 -291.5 t125 -275.5t207 -206t286 -81q176 0 336.5 68.5t283.5 195.5l43 -41q-131 -135 -303 -208.5t-360 -73.5q-190 0 -358.5 71.5t-292 195.5t-195.5 291t-72 357zM106 629q0 -156 62 -305.5t168 -262.5q-98 133 -142 284t-44 317q0 147 50 296.5t136 268.5 q-117 -125 -173.5 -277.5t-56.5 -320.5zM209 631q0 -156 53.5 -304.5t151.5 -269.5q-84 131 -125 283t-41 307q0 154 41 304.5t125 279.5q-106 -129 -155.5 -281.5t-49.5 -318.5zM506 483q0 -41 11 -81t32 -74q-8 41 -8 90q0 27 12 91t28.5 138t32 142.5t23.5 105.5 q4 27 14.5 51t22.5 47q-70 -78 -96.5 -163t-45.5 -183q-8 -41 -17 -82t-9 -82zM600 395q0 -66 33 -116q-2 10 -2 19v19q0 14 10 68.5t24.5 129.5t34 161t36 162.5t30.5 134.5t20 78q-33 -33 -55 -78q-8 -16 -21.5 -59.5t-27.5 -101.5t-28.5 -123.5t-27 -124t-19.5 -104.5 t-7 -65zM690 315q0 -61 44 -96t102 -35q37 0 73.5 13.5t67.5 38t52.5 56.5t29.5 68l90 433q12 55 27.5 121.5t15.5 121.5q0 66 -41 99.5t-100 33.5q-37 0 -74 -14t-66.5 -38.5t-51 -56.5t-30.5 -69q-16 -80 -32.5 -159.5t-32.5 -159.5q-6 -29 -18.5 -80t-24.5 -104.5 t-21.5 -101.5t-9.5 -71zM1155 483q0 -63 21 -116v34q0 39 12 105.5t28.5 139.5t33 140.5t24.5 108.5q6 26 6 59q0 27 -8 56.5t-21 52.5q0 -66 -15 -140.5t-32.5 -149.5t-33 -149.5t-15.5 -140.5zM1235 397q0 -70 41 -127q-2 12 -4 24.5t-2 24.5q0 33 8 66t14 66 q8 35 21.5 92t27 118.5t23.5 117.5t10 89q0 86 -43 158q8 -33 8 -74q0 -59 -16 -131.5t-35.5 -147.5t-36 -146.5t-16.5 -129.5zM1593 1155q51 -117 76 -250t25 -262q0 -92 -16.5 -184t-53.5 -178q57 76 82 171t25 187q0 137 -34 267t-104 249zM1675 1126q115 -223 115 -475 q0 -90 -18.5 -178t-59.5 -166q66 82 90.5 174t24.5 197q0 115 -44 235.5t-108 212.5z" />
<glyph unicode="A" d="M49 0v59h80v1031q0 98 36 178t97.5 137t144 89t177.5 32q94 0 177 -32t144.5 -89t97 -138t35.5 -177v-1031h78v-59h-434v59h78v506h-354v-506h77v-59h-434zM188 59h50v1215q-27 -41 -38.5 -89t-11.5 -95v-1031zM297 59h49v1229q0 35 9 69.5t32 63.5q-51 -29 -90 -67 v-1295zM406 625h354v663q0 37 -14.5 69t-38 56.5t-55 38.5t-68.5 14q-74 0 -126 -52t-52 -126v-663zM778 1421q43 -59 43 -133v-1229h45v1297q-18 20 -41.5 35.5t-46.5 29.5zM926 59h53v1031q0 51 -14.5 98t-38.5 92v-1221z" />
<glyph unicode="B" horiz-adv-x="1052" d="M49 1466v60h510q82 0 151.5 -32t122 -86t82 -127t29.5 -153q0 -111 -57.5 -206t-155.5 -148q63 -18 113.5 -56t85.5 -88t54.5 -111t19.5 -124q0 -80 -30 -152.5t-82 -126t-122 -85t-152 -31.5h-550v59h82v1407h-101zM211 59h49v1407h-49v-1407zM319 59h50v1407h-50v-1407 zM428 59h80q59 0 100 38t65.5 91.5t36 114t11.5 107.5q0 43 -13.5 99t-40 106.5t-66.5 84t-93 33.5h-80v-674zM428 793h8q63 0 106.5 35.5t70 89t36.5 114t10 111.5t-13 108.5t-42 104.5t-72 78.5t-104 31.5v-673zM600 801q49 18 82 56t51.5 86t26.5 100.5t8 99.5 q0 41 -10 90t-30.5 94t-52.5 80t-75 51q59 -59 89 -146t30 -171q0 -41 -6 -89t-20.5 -94.5t-37 -88.5t-55.5 -68zM659 68q49 18 81 56t52.5 87t28.5 101.5t8 97.5q0 39 -10 89t-31.5 96t-53.5 82t-75 48q70 -70 95.5 -157t25.5 -183q0 -39 -7 -84t-22.5 -88t-38 -82 t-53.5 -63zM758 862q59 47 92 118t33 148q0 78 -33 149t-92 118q35 -59 52 -125t17 -135q0 -72 -16 -142t-53 -131zM817 662q37 -59 54.5 -129t17.5 -140q0 -68 -16.5 -135.5t-53.5 -126.5q57 45 91 115.5t34 142.5q0 82 -30.5 150.5t-96.5 122.5z" />
<glyph unicode="C" horiz-adv-x="919" d="M49 436v654q0 98 36 178t97.5 137t144.5 89t177 32q106 0 182 -50.5t125 -142.5v193h59v-529h-59q0 47 -2 95.5t-8 95.5q-8 55 -34 106.5t-64.5 89t-90 60t-108.5 22.5q-74 0 -126 -52t-52 -126v-1050q0 -74 52 -126.5t126 -52.5q76 0 134 33t96 87t57.5 122t19.5 135h59 q0 -82 -23.5 -159.5t-69.5 -139t-114.5 -99.5t-158.5 -38q-94 0 -177 31.5t-144.5 90t-97.5 138.5t-36 176zM109 436q0 -49 12 -97t39 -91v1030q-27 -43 -39 -91t-12 -97v-654zM217 274q0 -43 20.5 -80.5t55.5 -64.5q-27 53 -27 109v1050q0 55 27 109q-35 -27 -55.5 -65 t-20.5 -81v-977z" />
<glyph unicode="D" horiz-adv-x="1038" d="M49 0v59h101v1407h-101v60h504q90 0 170 -34t139.5 -93.5t93 -139t33.5 -169.5v-654q0 -90 -33.5 -170t-93 -139t-139.5 -93t-170 -34h-504zM209 59h49v1407h-49v-1407zM317 59h50v1407h-50v-1407zM426 59h109q74 0 126 52.5t52 126.5v1050q0 37 -14.5 69t-39 56.5 t-56.5 38.5t-68 14h-109v-1407zM745 129q37 23 55.5 62.5t18.5 82.5v977q0 43 -19.5 82t-54.5 64q27 -53 27 -109v-1050q0 -55 -27 -109zM879 248q27 43 39 91t12 97v654q0 49 -12.5 97t-38.5 91v-1030z" />
<glyph unicode="E" horiz-adv-x="909" d="M49 0v59h101v1407h-101v60h811v-256h-59v196h-375v-845h223v88h60v-234h-60v86h-223v-502h375v197h59v-256h-811zM209 59h49v1407h-49v-1407zM317 59h50v1407h-50v-1407z" />
<glyph unicode="F" horiz-adv-x="909" d="M49 0v59h101v1407h-101v60h811v-256h-59v196h-375v-845h223v88h60v-234h-60v86h-223v-502h117v-59h-494zM209 59h49v1407h-49v-1407zM317 59h50v1407h-50v-1407z" />
<glyph unicode="G" horiz-adv-x="919" d="M49 436v654q0 98 36 178t97.5 137t144.5 89t177 32q102 0 182 -50.5t125 -142.5v193h59v-529h-59q0 47 -2 95.5t-8 95.5q-8 55 -34 106.5t-64.5 89t-90 60t-108.5 22.5q-74 0 -126 -52t-52 -126v-1050q0 -74 52 -126.5t126 -52.5q59 0 110.5 22.5t90 61.5t64.5 90.5 t32 108.5q6 51 8 101.5t2 101.5v16h-199v60h258v-621h-59v193q-47 -92 -126 -142.5t-181 -50.5q-94 0 -177 31.5t-144.5 90t-97.5 138.5t-36 176zM109 436q0 -80 31.5 -150.5t88.5 -125.5q-72 109 -71 239v727q0 55 18.5 125t52.5 115q-59 -53 -89.5 -126t-30.5 -150v-654z M217 395q0 -47 13 -96t38 -88q-2 8 -2 27v1050v13.5t2 13.5q-20 -47 -35.5 -89t-15.5 -96v-735z" />
<glyph unicode="H" horiz-adv-x="1146" d="M49 0v59h101v1407h-101v60h471v-60h-92v-845h299v845h-100v60h471v-60h-92v-1407h92v-59h-471v59h100v502h-299v-502h92v-59h-471zM211 59h47v1407h-47v-1407zM319 59h50v1407h-50v-1407zM786 59h50v1407h-50v-1407zM897 59h47v1407h-47v-1407z" />
<glyph unicode="I" horiz-adv-x="569" d="M49 0v59h96v1407h-96v60h471v-60h-98v-1407h98v-59h-471zM205 59h49v1407h-49v-1407zM313 59h49v1407h-49v-1407z" />
<glyph unicode="J" horiz-adv-x="913" d="M49 -6v424h60v-266q80 -92 206 -93q74 0 126.5 52.5t52.5 126.5v1228h-101v60h471v-60h-94v-1030q0 -96 -35 -177t-96 -138.5t-144 -89t-178 -31.5q-61 0 -111 15.5t-97 54.5v-76h-60zM526 127q37 31 56.5 62.5t19.5 80.5v1196h-49v-1228q0 -53 -27 -111zM662 250 q23 43 36 90t13 96v1030h-49v-1216z" />
<glyph unicode="K" horiz-adv-x="1159" d="M49 0v59h103v1407h-103v60h471v-60h-92v-624q80 18 144.5 63t110.5 106.5t71.5 137.5t25.5 156q0 82 -28 161h-125v60h424v-60h-105q0 -94 -23.5 -189t-67.5 -179t-110.5 -154t-152.5 -113h78q145 0 243 -102q102 -102 103 -246v-424h94v-59h-459v59h82v566q0 59 -44 103 t-103 44h-158v-713h92v-59h-471zM211 59h49v1407h-49v-1407zM319 59h50v1407h-50v-1407zM752 748q18 -29 29.5 -59t11.5 -64v-566h49v553q0 45 -24.5 82t-65.5 54zM815 1466q25 -80 25 -166q0 -63 -17 -135q33 72 48.5 148t15.5 153h-72zM895 659q4 -10 5 -22t1 -25v-553h55 v428q0 94 -61 172z" />
<glyph unicode="L" horiz-adv-x="788" d="M49 0v59h101v1407h-101v60h492v-60h-115v-1407h254v291h59v-350h-690zM209 59h49v1407h-49v-1407zM317 59h50v1407h-50v-1407z" />
<glyph unicode="M" horiz-adv-x="1581" d="M49 0v59h68v1088q0 86 32.5 158.5t90 124t133.5 80t159 28.5q72 0 138.5 -22.5t120.5 -69.5q47 41 112.5 66.5t126.5 25.5q88 0 167 -25.5t139.5 -76t95 -123t34.5 -166.5v-1088h66v-59h-428v59h84v1289q0 59 -36 94t-95 35q-57 0 -92 -37t-35 -92v-1289h94v-59h-440v59 h69v1289q0 59 -34.5 93t-94.5 34q-57 0 -94 -35t-37 -92v-1289h86v-59h-430zM176 59h49v1125q0 55 15.5 108.5t46.5 100.5q-53 -47 -82 -110.5t-29 -135.5v-1088zM285 59h49v1299q-49 -78 -49 -174v-1125zM686 1444q27 -47 27 -96v-1289h49v1334q-16 16 -35.5 28.5 t-40.5 22.5zM821 59h49v1289q0 49 27 96q-20 -10 -39.5 -22.5t-36.5 -28.5v-1334zM1247 59h49v1125q0 92 -49 170v-1295zM1290 1397q66 -94 66 -213v-1125h51v1088q0 72 -30.5 137.5t-86.5 112.5z" />
<glyph unicode="N" d="M49 0v59h80v1461h59v-211q63 111 167 164t229 53q94 0 177 -32t144.5 -89t97 -138t35.5 -177v-1031h78v-59h-434v59h78v1229q0 76 -51.5 126t-126.5 50q-76 0 -126 -51t-50 -125v-1229h77v-59h-434zM188 59h50v1074q0 63 16 115.5t45 107.5q-53 -53 -82 -122t-29 -144 v-1031zM297 59h49v1229q0 23 2 33q-23 -39 -37 -90t-14 -98v-1074zM817 1323q2 -10 3 -17.5t1 -17.5v-1229h49v1074q0 47 -13 98t-40 92zM868 1354q29 -57 45.5 -106.5t16.5 -114.5v-1074h49v1031q0 76 -28.5 143t-82.5 121z" />
<glyph unicode="O" horiz-adv-x="1007" d="M49 416v694q0 96 36 177t98.5 138.5t145.5 89t175 31.5q94 0 177 -31.5t144.5 -89t97 -138.5t35.5 -177v-694q0 -96 -34.5 -177t-96 -138.5t-144.5 -89t-177 -31.5q-96 0 -179 31.5t-144.5 89t-97.5 138t-36 177.5zM109 416q0 -78 30.5 -147t83.5 -122q-33 53 -49 107.5 t-16 120.5v778q0 53 15 115.5t48 107.5q-53 -53 -82.5 -121.5t-29.5 -144.5v-694zM217 369q0 -47 13.5 -96.5t37.5 -88.5q0 272 -1 562t-1 563q0 10 1 17t3 17q-25 -47 -39 -90t-14 -96v-788zM326 217q0 -78 51 -128t129 -50q37 0 68.5 14.5t55 39t38 56t14.5 68.5v1092 q0 76 -52 126t-126 50t-126 -51.5t-52 -124.5v-1092zM739 180q23 47 38.5 92t15.5 99v786q0 61 -16.5 99t-37.5 92q2 -10 2 -19.5v-19.5v-1092v-18.5t-2 -18.5zM793 152q51 53 78.5 121.5t27.5 142.5v694q0 72 -26.5 139.5t-77.5 120.5q27 -51 43 -101t16 -110v-790 q0 -66 -19.5 -113t-41.5 -104z" />
<glyph unicode="P" horiz-adv-x="993" d="M49 0v59h103v1407h-103v60h549q72 0 135.5 -28t110.5 -75t73.5 -110.5t26.5 -134.5v-269q0 -72 -26.5 -135t-73.5 -110.5t-110.5 -75t-135.5 -27.5h-170v-502h94v-59h-473zM211 59h49v1407h-49v-1407zM319 59h50v1407h-50v-1407zM428 621h86q59 0 103.5 44t44.5 103v551 q0 61 -43.5 104t-104.5 43h-86v-845zM690 662q37 18 59.5 54t22.5 77v489q0 39 -19.5 73t-52.5 54q20 -41 21 -90v-551q0 -29 -7 -56.5t-24 -49.5zM813 1368q10 -20 14 -41.5t4 -44.5v-489q0 -29 -10 -64q29 37 46.5 83t17.5 93v277q0 53 -18.5 100t-53.5 86z" />
<glyph unicode="Q" horiz-adv-x="1007" d="M49 436v674q0 98 36 178t97.5 137.5t144.5 89t177 31.5t177 -31.5t144.5 -89t97 -138.5t35.5 -177v-674q0 -74 -23.5 -144.5t-70.5 -127.5q29 -61 47.5 -137t18.5 -146v-94h-320v57h125q29 82 29 164q0 16 -1 30.5t-3 31.5q-63 -41 -132 -55.5t-143 -14.5 q-90 0 -169.5 34t-139 93t-93.5 139t-34 170zM109 436q0 -78 30.5 -146.5t83.5 -121.5q-33 53 -49 107.5t-16 119.5v758q0 53 15 115.5t48 107.5q-53 -53 -82.5 -121.5t-29.5 -144.5v-674zM217 389q0 -47 13.5 -96t37.5 -88q0 272 -1 551.5t-1 552.5q0 10 1 17t3 17 q-25 -47 -39 -90t-14 -96v-768zM326 238q0 -78 51 -128.5t129 -50.5q53 0 96 31t66 78q10 23 12 43t2 43v25q-61 92 -153.5 144t-202.5 54v-239zM326 537q100 -2 189 -33t167 -96v901q0 74 -52 126t-126 52q-37 0 -69 -14.5t-56.5 -39t-38.5 -56t-14 -68.5v-772zM739 201 q23 47 38.5 92t15.5 98v766q0 61 -16.5 99t-37.5 92q2 -10 2 -19.5v-19.5v-1071v-18.5t-2 -18.5zM795 1370q27 -51 43 -101t16 -110v-770q0 -59 -16.5 -109.5t-40.5 -101.5q49 53 75.5 120t26.5 138v674q0 72 -26.5 139.5t-77.5 120.5zM799 -156h71q0 145 -55 269 q4 -18 6 -38t2 -38v-31q0 -82 -24 -162z" />
<glyph unicode="R" horiz-adv-x="1144" d="M49 0v59h103v1407h-103v60h549q72 0 135.5 -28t110.5 -75t73.5 -110.5t26.5 -134.5v-269q0 -96 -49 -177t-131 -128q53 -16 96 -49t74 -76q45 -61 57.5 -127.5t12.5 -138.5q0 -39 -1.5 -77t-1.5 -77h95v-59h-459v59h82v357q0 59 -43 102t-103 43h-145v-502h92v-59h-471z M211 59h49v1407h-49v-1407zM319 59h50v1407h-50v-1407zM428 621h86q59 0 103.5 44t44.5 103v551q0 59 -44.5 103t-103.5 44h-86v-845zM700 680q33 20 50.5 53t17.5 72v477q0 39 -17.5 71.5t-50.5 53.5q20 -39 21 -88v-551q0 -49 -21 -88zM754 514q14 -23 19 -47.5t5 -50.5 v-357h56v240q0 55 -17.5 117.5t-62.5 97.5zM807 713q78 84 78 196v269q0 55 -20.5 104t-57.5 90q23 -45 22 -90v-477q0 -25 -6 -47.5t-16 -44.5zM852 483q29 -51 36 -117.5t7 -134.5q0 -47 -1 -92t-1 -80h49v215q0 59 -23.5 113.5t-66.5 95.5z" />
<glyph unicode="S" horiz-adv-x="917" d="M49 0v592h60v-184q0 -72 27.5 -135.5t74.5 -110.5t111.5 -75t136.5 -28q45 0 86 17.5t71.5 47.5t48 69.5t17.5 87.5q0 41 -16.5 77.5t-41 68.5t-55 62.5l-59.5 59.5l-336 352q-49 51 -73.5 115.5t-24.5 136.5q0 78 28.5 145.5t80 118.5t119 80t145.5 29q94 0 177 -47 t134 -125v172h59v-389h-59q0 70 -23.5 130t-65.5 105t-101.5 69.5t-131.5 24.5q-39 0 -71.5 -15t-56 -41t-37 -59.5t-13.5 -70.5q0 -66 47 -117q111 -123 223.5 -238.5t225.5 -234.5q53 -57 82.5 -129.5t29.5 -150.5q0 -86 -31.5 -161t-87 -130.5t-130 -87t-160.5 -31.5 q-109 0 -202 53t-148 146v-199h-60zM135 1153q0 -55 23 -113q14 -41 58 -95t102.5 -114.5t123 -124t122 -123t100.5 -110.5t57 -88q20 -49 20 -104t-20 -103q29 33 49.5 71t20.5 81t-18.5 79.5t-45.5 70.5t-58.5 66t-60.5 62l-366 381q-43 45 -70 106.5t-29 127.5 q-8 -31 -8 -70zM203 1233q0 -57 21.5 -109.5t60.5 -93.5q123 -129 243.5 -255t243.5 -253q17 -17 29 -35q-4 23 -12.5 44.5t-18.5 41.5q-8 16 -44 58.5t-85 95.5t-106.5 113.5t-110.5 116t-96 99.5t-64 66q-25 27 -41 59.5t-20 69.5v-18z" />
<glyph unicode="T" horiz-adv-x="937" d="M49 1137v389h840v-389h-60v329h-223v-1407h109v-59h-494v59h109v1407h-221v-329h-60zM389 59h49v1407h-49v-1407zM498 59h49v1407h-49v-1407z" />
<glyph unicode="U" d="M49 1466v60h434v-60h-77v-1228q0 -74 52 -126.5t126 -52.5q76 0 126 52.5t50 126.5v1228h-78v60h434v-60h-78v-1030q0 -180 -127 -307q-72 -72 -150.5 -100.5t-176.5 -28.5q-94 0 -177 31.5t-144.5 89t-97.5 137.5t-36 178v1030h-80zM188 436q0 -80 31 -151.5t90 -124.5 q-35 53 -54 114.5t-19 124.5v1067h-48v-1030zM297 399q0 -102 49 -188v1255h-49v-1067zM819 211q51 90 51 188v1067h-49v-1228q0 -4 -1 -10.5t-1 -16.5zM856 160q59 53 91 125.5t32 150.5v1030h-49v-1067q0 -63 -19.5 -124.5t-54.5 -114.5z" />
<glyph unicode="V" d="M49 1466v60h496v-60h-135l278 -1013l281 1013h-138v60h285v-60h-86l-405 -1466h-84l-406 1466h-86zM197 1466l387 -1394l20 78l-364 1316h-43zM301 1466l334 -1206l22 82l-311 1124h-45z" />
<glyph unicode="W" horiz-adv-x="1581" d="M49 1466v60h434v-60h-90v-1290q0 -55 38 -91t91 -36q59 0 95 34t36 93v1290h-90v60h463v-60h-96v-1290q0 -59 35.5 -93t95.5 -34q57 0 92 36t35 91v1290h-88v60h432v-60h-66v-1089q0 -88 -33.5 -160t-90 -123t-132 -78.5t-159.5 -27.5q-70 0 -138.5 23.5t-121.5 68.5 q-47 -41 -113 -66.5t-127 -25.5q-86 0 -165 26.5t-139.5 75.5t-95 122t-34.5 165v1089h-68zM176 377q0 -70 29 -133.5t82 -110.5q-31 47 -46.5 100.5t-15.5 108.5v1124h-49v-1089zM285 342q0 -96 49 -176v1300h-49v-1124zM686 82q20 10 39.5 22.5t36.5 28.5v1333h-49v-1290 q0 -47 -27 -94zM821 133q16 -16 36 -28.5t40 -22.5q-27 47 -27 94v1290h-49v-1333zM1247 170q49 76 49 172v1124h-49v-1296zM1290 127q53 47 85 112.5t32 137.5v1089h-51v-1124q0 -119 -66 -215z" />
<glyph unicode="X" d="M49 0v59h80v127q0 68 19.5 130.5t55.5 115.5t87 94t115 66q-61 25 -112.5 65.5t-88.5 94t-56.5 116t-19.5 129.5v469h-80v60h445v-60h-88v-667q0 -74 52 -126t126 -52q37 0 68.5 14t56 38.5t38 56.5t13.5 69v667h-88v60h444v-60h-78v-469q0 -68 -20.5 -130t-57 -115.5 t-88 -94.5t-112.5 -65q63 -25 114.5 -66t88 -94t56 -115.5t19.5 -130.5v-127h78v-59h-434v59h78v324q0 37 -13.5 68.5t-38 56t-56 39t-68.5 14.5q-74 0 -126 -52t-52 -126v-324h77v-59h-434zM188 59h50q0 33 -1 65t-1 64q0 63 8 125t37 121q-92 -109 -93 -248v-127zM188 997 q0 -80 32 -152.5t91 -125.5q-35 53 -54 114.5t-19 127.5v505h-50v-469zM297 59h49q0 51 -2 106.5t-2 113.5q0 43 2 82.5t8 76.5q-27 -41 -41 -90t-14 -98v-191zM297 961q0 -100 49 -187v692h-49v-505zM813 440q8 -25 8 -57v-324h47v189q0 106 -55 192zM819 774q49 86 49 187 v505h-49v-692zM854 719q59 53 92 126t33 152v469h-51v-252q0 -47 2 -92t2 -92q0 -84 -14.5 -161.5t-63.5 -149.5zM885 432q29 -55 37 -115.5t8 -121.5q0 -35 -1 -69t-1 -67h51v127q0 68 -24.5 131.5t-69.5 114.5z" />
<glyph unicode="Y" d="M49 1466v60h467v-60h-110v-667q0 -74 52 -126t126 -52q37 0 68.5 14t56 38.5t38 56.5t13.5 69v667h-109v60h465v-60h-78v-469q0 -74 -23.5 -140t-65.5 -121.5t-100 -96.5t-128 -61v-519h108v-59h-493v59h108v519q-72 20 -129 61t-99 96.5t-64.5 122t-22.5 139.5v469h-80z M188 997q0 -80 32 -152.5t91 -125.5q-35 53 -54 114.5t-19 127.5v505h-50v-469zM297 961q0 -100 49 -187v692h-49v-505zM504 59h49v502q-10 2 -31 2l-6 2h-12v-506zM612 59h50v506l-9 -2q-10 -2 -28 -2h-13v-502zM819 774q49 86 49 187v505h-49v-692zM854 719q59 53 92 126 t33 152v469h-51v-436q0 -84 -12.5 -161.5t-61.5 -149.5z" />
<glyph unicode="Z" horiz-adv-x="968" d="M49 0l567 1466h-444v-176h-59v236h807l-568 -1467h434v217h60v-276h-797zM137 59h43l543 1407h-43zM244 59h45l545 1407h-48z" />
<glyph unicode="[" horiz-adv-x="524" d="M49 -289v1817h426v-62h-149v-1693h149v-62h-426zM109 -227h49v1693h-49v-1693zM217 -227h49v1693h-49v-1693z" />
<glyph unicode="\" horiz-adv-x="915" d="M49 1528h264l553 -1530h-264zM135 1466l508 -1407h37l-510 1407h-35zM236 1466l509 -1407h35l-510 1407h-34z" />
<glyph unicode="]" horiz-adv-x="524" d="M49 -227h150v1693h-150v62h426v-1817h-426v62zM258 -227h49v1693h-49v-1693zM367 -227h49v1693h-49v-1693z" />
<glyph unicode="_" horiz-adv-x="1024" d="M0 -41h1024v-70h-1024v70z" />
<glyph unicode="`" horiz-adv-x="505" d="M49 1155v164l408 -100v-64h-408zM111 1214h114l-114 29v-29z" />
<glyph unicode="a" horiz-adv-x="1095" d="M49 451v202q0 96 37 179t100.5 143.5t147.5 94.5t180 34q94 0 178 -35t147.5 -95.5t99.5 -142t36 -178.5v-594h72v-59h-349v80q-45 -49 -98 -64.5t-117 -15.5q-41 0 -90 14.5t-84 32.5q-123 59 -191.5 162.5t-68.5 241.5zM111 451q-1 -130 75 -234q-22 58 -22 118v5v424 q0 59 22 121q-37 -49 -56 -109.5t-19 -122.5v-202zM223 336q0 -47 16.5 -90t45.5 -80q-10 37 -11 65v641q0 31 11 66q-29 -37 -45.5 -80t-16.5 -90v-432zM336 231q0 -37 14.5 -68.5t39 -54t57 -36t69.5 -13.5q74 0 128 48.5t54 123.5v641q0 76 -54 124t-128 48 q-35 0 -67.5 -13t-57 -36.5t-40 -54.5t-15.5 -68v-641zM754 922q2 -12 3 -24.5t1 -25.5v-813h43v709q0 84 -47 154zM838 887q22 -58 22 -118v-5v-705h55v594q0 131 -77 234z" />
<glyph unicode="b" horiz-adv-x="1095" d="M49 1470v60h348v-506q43 43 90.5 61.5t106.5 18.5q92 0 175 -36t144.5 -97.5t97.5 -143.5t36 -174v-202q0 -96 -37 -178.5t-100.5 -142.5t-147.5 -95t-178 -35t-178 35t-147.5 95t-100.5 142t-37 179v1019h-72zM180 451q0 -63 20.5 -123t57.5 -111q-22 58 -22 118v5v1130 h-56v-1019zM295 340q0 -43 13 -83t36 -75q-2 12 -4 24.5t-2 24.5v1239h-43v-1130zM397 231q0 -41 16.5 -72.5t43 -54t61.5 -34t72 -11.5q33 0 64.5 14.5t55 39t38 55.5t14.5 63v641q0 82 -58.5 127t-134.5 45q-35 0 -65.5 -14t-54 -38.5t-38 -55.5t-14.5 -64v-641zM811 166 q61 74 61 170v432q0 96 -61 170q10 -35 10 -66v-641q0 -31 -10 -65zM909 219q78 100 78 232v202q0 131 -78 234q23 -61 23 -123v-424q0 -59 -23 -121z" />
<glyph unicode="c" horiz-adv-x="907" d="M49 451v202q0 92 35 174t96.5 143.5t142 97.5t173.5 36q94 0 171.5 -35t131.5 -113v117h59v-309h-59q0 59 -22.5 110.5t-61.5 89t-91.5 59t-109.5 21.5q-35 0 -67.5 -13t-57 -36.5t-40 -54.5t-15.5 -68v-641q0 -37 15.5 -68.5t41 -55t58 -36t69.5 -12.5q33 0 74 11.5 t79 32t71.5 45t52.5 53.5l49 -35q-27 -37 -65 -66.5t-83 -52t-92 -35t-92 -12.5q-96 0 -180 34t-146.5 94t-99.5 143t-37 180zM109 451q0 -63 19 -124t58 -110q-22 58 -22 118v5v424q0 59 22 121q-78 -100 -77 -232v-202zM223 336q1 -96 62 -170q-6 16 -8.5 32.5t-2.5 32.5 v646q0 16 2.5 31.5t8.5 29.5q-61 -74 -62 -170v-432z" />
<glyph unicode="d" horiz-adv-x="1097" d="M49 518q0 33 1 69t1 66q0 92 36 174t98.5 143.5t145.5 97.5t175 36q20 0 49 -5t58.5 -15.5t53 -26t33.5 -33.5v506h349v-60h-72v-1019q0 -96 -37 -179.5t-99.5 -143.5t-147.5 -94t-179 -34q-68 0 -132.5 18.5t-120.5 54.5t-101 86t-72 113q-25 59 -32 120t-7 126z M113 451q0 -61 19 -122t56 -110q-22 58 -22 116v5v424q0 61 22 123q-76 -104 -75 -234v-202zM225 336q0 -47 16.5 -90t45.5 -80q-10 35 -11 65v641q0 31 11 66q-29 -37 -45.5 -80t-16.5 -90v-432zM338 231q0 -82 57.5 -127t132.5 -45q33 0 65 14.5t55.5 39t37.5 55.5t14 63 v641q0 82 -58 127t-134 45q-35 0 -65.5 -14t-54 -37.5t-37 -55.5t-13.5 -65v-641zM754 182q23 35 36 74t13 80v1134h-43v-1239q0 -12 -1 -24t-5 -25zM840 217q78 102 78 234v1019h-56v-1130q0 -61 -22 -123z" />
<glyph unicode="e" horiz-adv-x="1021" d="M49 449v204q0 92 36 174t97.5 143.5t143.5 97.5t174 36q98 0 184 -33t150.5 -92t101.5 -142t37 -184v-118h-641v-293q0 -94 64.5 -139.5t150.5 -45.5q53 0 106.5 21.5t99.5 56.5t81.5 80t54.5 94l55 -20q-25 -66 -66.5 -118t-97 -91t-120 -59.5t-132.5 -20.5 q-98 0 -186 31.5t-152.5 90t-102.5 141.5t-38 186zM109 449q0 -63 19 -124t58 -112q-22 60 -22 122v5v424q0 66 20 121q-37 -49 -56 -109.5t-19 -122.5v-204zM223 336q0 -47 16.5 -92t45.5 -80q-12 33 -13 74v628q0 39 13 74q-29 -35 -45.5 -80t-16.5 -92v-432zM332 594h362 v268q0 82 -56 132t-134 50q-37 0 -67.5 -15t-54.5 -41.5t-37 -59.5t-13 -66v-268zM745 928q10 -35 11 -66v-268h43v174q0 90 -54 160zM836 885q16 -41 20 -84t4 -86q0 -31 -1 -61.5t-1 -59.5h55v59q0 131 -77 232z" />
<glyph unicode="f" horiz-adv-x="632" d="M49 0v59h72v1020q0 96 36 179t99 143.5t147 94.5t181 34v-60q-74 0 -130.5 -46t-56.5 -124v-196h166v-60h-166v-985h97v-59h-445zM180 59h56v1131v5q0 60 22 118q-78 -102 -78 -234v-1020zM295 59h43v1241q0 12 1 24t3 24q-23 -35 -35 -74t-12 -80v-1135z" />
<glyph unicode="g" horiz-adv-x="1021" d="M49 449v204q0 92 36 174t97.5 143.5t143.5 97.5t174 36q98 0 184 -33t150.5 -92t101.5 -142t37 -184v-563q0 -117 -42 -201t-112.5 -139t-164 -81.5t-193.5 -26.5q-135 0 -222 68.5t-87 187.5q0 53 36.5 87.5t87.5 34.5t88 -33.5t37 -86.5q0 -45 -34.5 -86t-81.5 -41 h-13.5t-13.5 4q29 -41 88.5 -58.5t106.5 -17.5q43 0 87 8t77.5 28.5t55 57.5t21.5 94v193q-39 -45 -89 -63.5t-107 -18.5q-92 0 -174 36t-143.5 96.5t-96.5 142t-35 174.5zM109 449q0 -63 19 -124t58 -110q-22 60 -22 120v5v424q0 66 20 121q-37 -49 -56 -109.5t-19 -122.5 v-204zM213 -98q0 -66 63 -70q63 4 64 68q0 63 -64 63q-29 0 -46 -16.5t-17 -44.5zM223 336q0 -47 16.5 -92t45.5 -80q-12 33 -13 74v628q0 39 13 74q-29 -35 -45.5 -80t-16.5 -92v-432zM332 242q0 -35 13 -68t35.5 -57.5t54.5 -40t67 -15.5q84 0 138 47.5t54 133.5v620 q0 82 -56 132t-134 50q-37 0 -67.5 -15t-54.5 -41.5t-37 -59.5t-13 -66v-620zM745 -182q53 70 54 164v786q0 90 -54 160q10 -35 11 -66v-987q0 -31 -11 -57zM836 -143q78 102 77 233v563q0 131 -77 232q22 -58 22 -116v-5v-782q0 -61 -22 -125z" />
<glyph unicode="h" horiz-adv-x="1140" d="M49 1470v60h350v-576q55 76 133 113t170 37q68 0 129.5 -26.5t107.5 -73t73.5 -106.5t27.5 -128v-711h52v-59h-404v59h74v813q0 27 -9.5 56.5t-26.5 52.5t-42 38t-55 15q-47 0 -88 -25.5t-73 -64.5t-50.5 -85t-18.5 -89v-711h78v-59h-405v59h51v1411h-74zM182 59h54v1411 h-54v-1411zM297 59h41v1411h-41v-1411zM784 999q37 -55 37 -127v-813h47v762q0 51 -21.5 98.5t-62.5 79.5zM887 971q23 -35 32 -72t9 -78v-762h53v711q0 59 -25.5 110.5t-68.5 90.5z" />
<glyph unicode="i" horiz-adv-x="505" d="M49 1044v60h348v-1045h60v-59h-387v59h51v985h-72zM121 1384q0 59 41 98.5t98 39.5q59 0 98 -39.5t39 -98.5q0 -57 -39 -98t-98 -41t-99 40t-40 99zM180 59h49v985h-49v-985zM180 1384q0 -25 13.5 -44t35.5 -29v145q-23 -10 -36 -29.5t-13 -42.5zM289 59h49v985h-49v-985 zM289 1311q23 10 36 29t13 44t-13.5 44.5t-35.5 27.5v-145z" />
<glyph unicode="j" horiz-adv-x="454" d="M-57 -301q74 2 130 48t56 124v1173h-80v60h357v-1014q0 -96 -37 -178t-99.5 -141.5t-146.5 -94t-178 -34.5zM129 1384q0 59 41 98.5t98 39.5q59 0 98.5 -39.5t39.5 -98.5q0 -57 -39 -98t-99 -41q-59 0 -99 40t-40 99zM182 -184q53 70 54 161v1067h-48v-1173 q0 -14 -1 -27.5t-5 -27.5zM188 1384q0 -25 13.5 -44t36.5 -29v145q-23 -10 -36.5 -29.5t-13.5 -42.5zM276 -131q35 47 52.5 102.5t17.5 112.5v960h-51v-1067q0 -57 -19 -108zM297 1311q23 10 36 29t13 44t-13.5 44.5t-35.5 27.5v-145z" />
<glyph unicode="k" horiz-adv-x="1116" d="M49 1470v60h348v-852h123q29 0 53.5 17.5t43 43t28.5 56t10 57.5v192h-75v60h426v-60h-72v-92q0 -86 -48 -166.5t-124 -121.5q111 -29 180 -117q74 -90 74 -205v-283h51v-59h-408v59h76v387q0 29 -11 60t-29.5 55.5t-45 40.5t-57.5 16h-195v-559h80v-59h-407v59h51v1411 h-72zM180 59h53v1411h-53v-1411zM293 59h45v1411h-45v-1411zM678 721q37 25 60.5 79t23.5 97v147h-47v-143q0 -47 -6.5 -90t-30.5 -90zM756 578q18 -29 29.5 -63t11.5 -69v-387h47v336q0 53 -23.5 101.5t-64.5 81.5zM780 750q0 4 4 4q41 41 65.5 88t24.5 106v96h-53v-104 q0 -49 -6 -97t-35 -93zM862 545q41 -70 41 -150v-336h51v283q0 59 -24.5 111.5t-67.5 91.5z" />
<glyph unicode="l" horiz-adv-x="505" d="M49 1470v60h348v-1471h60v-59h-387v59h51v1411h-72zM180 59h53v1411h-53v-1411zM293 59h45v1411h-45v-1411z" />
<glyph unicode="m" horiz-adv-x="1779" d="M49 0v59h53v594q0 137 75 249t202 165q41 16 85 26.5t89 10.5q96 0 179 -28.5t153 -94.5q141 123 323 123q94 0 178 -35t146.5 -95.5t99.5 -142t37 -178.5v-594h62v-59h-424v59h84v803q0 78 -53.5 130t-131.5 52q-37 0 -69.5 -15t-56 -39.5t-38 -57.5t-14.5 -70v-803h100 v-59h-462v59h84v803q0 35 -13.5 68t-37 57.5t-54.5 39.5t-65 15q-82 0 -137.5 -47t-55.5 -133v-803h88v-59h-426zM162 59h55v705q0 60 23 121q-78 -100 -78 -232v-594zM276 59h50v803q0 20 4 40t10 38q-29 -35 -46.5 -80t-17.5 -92v-709zM799 930q6 -16 8 -33.5t2 -34.5 v-803h47v709q0 43 -14.5 85t-42.5 77zM915 59h52v803q0 20 4 40t10 38q-31 -37 -48.5 -82t-17.5 -92v-707zM1442 928q8 -27 8 -66v-803h45v709q0 90 -53 160zM1532 885q22 -58 22 -116v-5v-705h56v594q0 131 -78 232z" />
<glyph unicode="n" horiz-adv-x="1138" d="M49 0v59h53v594q0 96 37 179t100.5 143.5t147.5 94.5t180 34q94 0 178 -35t147.5 -95.5t99.5 -142t36 -178.5v-594h62v-59h-424v59h84v803q0 82 -56.5 132t-134.5 50q-37 0 -67.5 -15t-54 -41.5t-37 -59.5t-13.5 -66v-803h88v-59h-426zM164 59h53v705q0 60 23 121 q-37 -49 -56.5 -109.5t-19.5 -122.5v-594zM279 59h49v803q0 41 12 78q-29 -35 -45 -80t-16 -92v-709zM801 928q8 -27 8 -66v-803h45v709q0 90 -53 160zM891 885q22 -58 22 -116v-5v-705h56v594q0 131 -78 232z" />
<glyph unicode="o" horiz-adv-x="1021" d="M49 436v230q0 92 36 173t97.5 139t143.5 92t174 34q98 0 184 -31t150.5 -88t101.5 -138t37 -181v-230q0 -94 -36 -176t-97.5 -142.5t-143.5 -95t-174 -34.5q-98 0 -184 32.5t-150.5 91t-101.5 141.5t-37 183zM109 436q0 -63 19 -123.5t58 -111.5q-22 60 -22 122v5v436 q0 66 20 121q-76 -100 -75 -219v-230zM223 324q0 -47 16.5 -92t45.5 -80q-12 33 -13 73v641q0 39 13 74q-29 -35 -45.5 -80t-16.5 -92v-444zM332 229q0 -37 14 -69.5t39 -58t57.5 -40t69.5 -14.5q78 0 130 52.5t52 129.5v633q0 82 -56 132t-134 50q-37 0 -67.5 -15 t-54.5 -41.5t-37 -59.5t-13 -66v-633zM745 164q25 35 39.5 76t14.5 84v444q0 90 -54 160q10 -35 11 -66v-633q0 -31 -11 -65zM834 201q41 49 60 110.5t19 124.5v230q0 63 -19.5 116.5t-57.5 102.5q22 -58 22 -116v-5v-436q0 -70 -24 -127z" />
<glyph unicode="p" horiz-adv-x="1095" d="M49 -301h72v954q0 96 37 179t100.5 143.5t147 94.5t180.5 34q94 0 178 -35t146.5 -95.5t99.5 -142t37 -178.5v-202q0 -94 -36 -176t-97.5 -143.5t-144.5 -96.5t-177 -35q-47 0 -98.5 16.5t-83.5 51.5q-4 4 -6.5 7t-6.5 5v-440h-348v59zM182 -301h54v1065v5q0 60 22 118 q-35 -49 -55.5 -106.5t-20.5 -118.5v-963zM297 -301h41v1173q0 12 2 25t4 25q-47 -70 -47 -148v-1075zM397 231q0 -41 16.5 -72.5t43 -54t61.5 -34t72 -11.5q33 0 64.5 14.5t55 39t38 55.5t14.5 63v641q0 82 -58.5 127t-134.5 45q-35 0 -65.5 -14t-54 -38.5t-38 -55.5 t-14.5 -64v-641zM811 166q61 74 61 170v432q0 96 -61 170q10 -35 10 -66v-641q0 -31 -10 -65zM909 217q78 102 78 234v202q0 131 -78 232q23 -61 23 -121v-424q0 -61 -23 -123z" />
<glyph unicode="q" horiz-adv-x="1095" d="M49 451v202q0 96 37 179t100.5 143.5t147.5 94.5t180 34q94 0 178 -35t146.5 -95.5t99.5 -142t37 -178.5v-954h72v-59h-349v440q-43 -43 -90 -61.5t-106 -18.5q-92 0 -175 36t-144.5 97.5t-97.5 143t-36 174.5zM109 451q-1 -132 77 -234q-22 58 -22 118v5v424 q0 59 22 121q-78 -100 -77 -232v-202zM223 336q1 -96 62 -170q-10 35 -11 65v641q0 31 11 66q-61 -74 -62 -170v-432zM334 231q0 -41 16.5 -72.5t43 -54t61 -34t71.5 -11.5q33 0 65 14.5t55.5 39t37.5 55.5t14 63v641q0 82 -58 127t-134 45q-35 0 -65.5 -14t-54.5 -38.5 t-38 -55.5t-14 -64v-641zM752 922q4 -12 5 -24.5t1 -25.5v-1173h43v1065q0 86 -49 158zM838 887q22 -58 22 -118v-5v-1065h55v954q0 63 -20.5 123t-56.5 111z" />
<glyph unicode="r" horiz-adv-x="919" d="M49 0v59h53v1045h60v-227q61 98 163.5 162.5t221.5 64.5q63 0 121.5 -19.5t103.5 -57.5t71.5 -91t26.5 -121q0 -55 -34 -95t-91 -40q-53 0 -88.5 37t-35.5 88q0 55 36.5 90t87.5 35q12 0 33 -4q-31 53 -87 85.5t-120 32.5q-78 0 -131 -52t-53 -130v-803h109v-59h-447z M162 59h55v705q0 60 23 121q-78 -100 -78 -232v-594zM276 59h50v803q0 20 4 40t10 38q-29 -35 -46.5 -80t-17.5 -92v-709zM682 805q0 -63 63 -64q29 0 47.5 18.5t18.5 45.5q0 25 -18 44t-43 19q-31 0 -49.5 -16t-18.5 -47z" />
<glyph unicode="s" horiz-adv-x="909" d="M49 0v391h60v-72q0 -63 33.5 -112t83.5 -82t111.5 -49.5t117.5 -16.5q29 0 67.5 5.5t74.5 18.5t60.5 37.5t24.5 63.5q-2 10 -7 29.5t-22 36.5q-104 94 -216.5 178t-223.5 172q-45 35 -73.5 93.5t-28.5 133.5q0 70 31.5 123.5t81.5 89t116 53t133 17.5q68 0 132.5 -17.5 t114.5 -52t80.5 -87t30.5 -122.5q0 -51 -36.5 -88.5t-87.5 -37.5t-89 36.5t-38 87.5q0 57 36.5 91t83.5 34h16.5t18.5 -4q-27 49 -102.5 76t-157.5 27q-76 0 -132 -24.5t-56 -80.5q0 -33 26 -53q43 -37 121 -96.5t160 -125t148.5 -127t88.5 -102.5q29 -57 29 -116 q0 -78 -36 -138.5t-92 -102.5t-126.5 -64.5t-140.5 -22.5q-102 0 -196.5 35t-159.5 119v-154h-60zM170 807q0 -51 23.5 -88t60.5 -72l326 -262q27 -23 55.5 -42t51 -44t37.5 -54.5t17 -68.5q14 14 25.5 31t11.5 35q0 51 -47 92q-23 20 -68 56t-99 80t-112.5 92t-109.5 91 t-87 77t-46 52q-10 16 -19.5 35t-13.5 39q-2 -12 -4 -24.5t-2 -24.5zM233 901q0 -39 17.5 -70.5t45.5 -59.5t59.5 -52.5t60.5 -46.5q2 0 28.5 -22.5t66.5 -54.5t87 -71t89 -74.5t73 -62.5t39 -37q-6 45 -31 82q-20 33 -66.5 73t-102.5 85t-116.5 90t-113 88t-90 79t-46.5 62 v-8zM641 827q0 -29 17.5 -46t46.5 -17t47 17.5t18 45.5q0 29 -18.5 47.5t-46.5 18.5q-29 0 -46.5 -18.5t-17.5 -47.5z" />
<glyph unicode="t" horiz-adv-x="561" d="M49 451v948h277v-295h153v-60h-153v-813q0 -37 15 -68.5t42 -55t59.5 -36t69.5 -12.5l-2 -59q-96 0 -179 35t-146.5 95t-99.5 142t-36 179zM109 451q0 -61 18 -120t55 -108q-20 53 -20 117v999h-53v-888zM221 336q0 -88 51 -158q-2 14 -4 26.5t-2 26.5v1108h-45v-1003z " />
<glyph unicode="u" horiz-adv-x="1138" d="M49 1044v60h426v-60h-88v-802q0 -76 52.5 -129.5t127.5 -53.5q78 0 130.5 52.5t52.5 130.5v802h-84v60h424v-60h-62v-593q0 -137 -74.5 -249t-201.5 -165q-41 -16 -85 -26.5t-89 -10.5q-96 0 -183.5 33t-152 93t-102.5 143t-38 182v593h-53zM164 451q0 -130 76 -234 q-23 61 -23 123v704h-53v-593zM279 336q0 -47 16 -92t45 -80q-12 37 -12 78v802h-49v-708zM801 174q25 35 39 77t14 85v708h-45v-802q0 -37 -8 -68zM891 217q78 102 78 234v593h-56v-704q0 -61 -22 -123z" />
<glyph unicode="v" horiz-adv-x="1251" d="M49 1044v60h555v-60h-166l303 -669l301 669h-149v60h309v-60h-94l-490 -1089l-489 1089h-80zM195 1044l423 -944l31 68l-397 876h-57zM317 1044l365 -804l27 63l-336 741h-56z" />
<glyph unicode="w" horiz-adv-x="1722" d="M49 1044v60h1151v-60h-92l-98 -219l204 -450l299 669h-149v60h309v-60h-94l-489 -1089l-236 524l-238 -524l-489 1089h-78zM193 1044l423 -944l31 68l-397 876h-57zM315 1044l365 -804l29 63l-336 741h-58zM438 1044l303 -669l80 178l-221 491h-162zM666 1044l424 -944 l30 68l-397 876h-57zM788 1044l365 -804l29 63l-338 741h-56zM909 1044l68 -145l65 145h-133z" />
<glyph unicode="x" horiz-adv-x="1138" d="M49 0v59h53v170q0 143 80 257t215 163q-61 23 -114.5 63t-91 92t-61.5 113.5t-26 126.5h-55v60h426v-60h-88v-182q0 -76 51 -129t129 -53q76 0 129.5 53t53.5 129v182h-84v60h424v-60h-62q-10 -133 -88 -241.5t-207 -153.5q68 -23 122 -64.5t93 -97t59.5 -122 t20.5 -136.5v-170h62v-59h-424v59h84v379q0 78 -52.5 130.5t-130.5 52.5q-37 0 -69.5 -14.5t-57 -40t-39 -58.5t-14.5 -70v-379h88v-59h-426zM164 59h53v281q0 62 23 123q-76 -104 -76 -234v-170zM164 1044q4 -55 22.5 -108t53.5 -98q-16 43 -19.5 77.5t-3.5 75.5v53h-53z M279 59h49v379q0 41 12 78q-29 -35 -45 -80t-16 -92v-285zM279 956q0 -47 16 -92t45 -80q-10 29 -11 61t-1 64v135h-49v-88zM801 506q8 -31 8 -68v-379h45v285q0 43 -13.5 85t-39.5 77zM801 795q25 35 39 76.5t14 84.5v88h-45q0 -12 1 -49t1 -77q0 -37 -2 -71t-8 -52z M891 463q22 -58 22 -118v-5v-281h56v170q0 131 -78 234zM891 838q35 45 54.5 98t21.5 108h-54v-53q0 -41 -3 -75.5t-19 -77.5z" />
<glyph unicode="y" horiz-adv-x="1085" d="M49 1044v60h344v-862q0 -78 52.5 -130.5t129.5 -52.5q78 0 130.5 52.5t52.5 130.5v802h-150v60h428v-1014q0 -106 -41 -190t-110.5 -141.5t-160.5 -87t-192 -29.5q-70 0 -128 17t-101 50t-67.5 80t-24.5 109q0 55 37 88.5t92 33.5t89 -32.5t34 -87.5q0 -45 -35 -86 t-82 -41h-13t-14 4q18 -20 43 -34.5t53.5 -24t58.5 -14.5t54 -5q45 0 86 10t73 32.5t51.5 58.5t19.5 85v197q-39 -45 -89.5 -63.5t-109.5 -18.5q-92 0 -174 36t-143.5 96.5t-96 142t-34.5 174.5v595h-62zM170 449q0 -63 19.5 -124t58.5 -110q-23 63 -23 125v704h-55v-595z M274 -102q1 -62 64 -66q63 4 63 68q0 63 -63 63q-29 0 -46.5 -18.5t-17.5 -46.5zM285 336q0 -47 17 -92t46 -80q-14 35 -14 78v802h-49v-708zM807 -182q29 35 41 77t12 87v1062h-43v-1161q0 -16 -2 -33.5t-8 -31.5zM897 -143q78 102 78 233v954h-53v-1062q0 -33 -7.5 -64 t-17.5 -61z" />
<glyph unicode="z" horiz-adv-x="1011" d="M49 0l567 1047h-471v-338h-59v397h877l-568 -1047h486v338h61v-397h-893zM150 59h55l534 988h-55zM272 59h56l534 988h-55z" />
<glyph unicode="{" horiz-adv-x="722" d="M49 547v61q66 8 114 52.5t48 115.5v303q0 96 36 179t99.5 143.5t147.5 94.5t180 34v-60q-74 0 -130.5 -46t-56.5 -124v-303q0 -74 -21.5 -139t-60 -119.5t-92 -95.5t-116.5 -65q63 -25 116.5 -66t92 -95.5t60 -120t21.5 -138.5v-303q0 -78 56.5 -124t130.5 -46v-60 q-96 0 -180 34t-147.5 94.5t-99.5 143.5t-36 179v303q0 70 -48 114t-114 54zM266 426q2 -12 3 -23.5t1 -23.5v-303q0 -132 78 -234q-23 61 -22 123v250q0 78 -18.5 130t-41.5 81zM266 729q23 29 41.5 81t18.5 130v250q-1 62 22 123q-78 -102 -78 -234v-303q0 -12 -1 -23.5 t-3 -23.5zM350 391q10 -29 22.5 -73t12.5 -95v-262q0 -41 12 -80t35 -74q-2 12 -3 23.5t-1 24.5v303q0 131 -78 233zM350 764q78 102 78 233v303q0 12 1 24t3 24q-23 -35 -35 -74t-12 -80v-262q0 -51 -12.5 -95t-22.5 -73z" />
<glyph unicode="}" horiz-adv-x="722" d="M49 -315q74 0 130.5 46t56.5 124v303q0 74 21.5 139t60 119.5t92 95.5t116.5 66q-63 25 -116.5 65.5t-92 95t-60 120t-21.5 138.5v303q0 78 -56.5 124t-130.5 46v60q96 0 180 -34t147.5 -94.5t99.5 -143.5t36 -179v-303q0 -72 48 -116t114 -52v-61q-66 -10 -114 -54 t-48 -114v-303q0 -96 -36 -179t-99.5 -143.5t-147.5 -94.5t-180 -34v60zM291 -193q23 35 35 74t12 80v262q0 51 12 95t23 73q-78 -102 -78 -233v-303q0 -12 -1 -24t-3 -24zM291 1348q2 -12 3 -23.5t1 -24.5v-303q0 -131 78 -233q-10 29 -22.5 73t-12.5 95v262q0 41 -12 80 t-35 74zM375 -158q78 102 78 234v303q0 12 1 23.5t3 23.5q-23 -29 -41.5 -81t-18.5 -130v-250q1 -62 -22 -123zM375 1313q23 -61 22 -123v-250q0 -78 18.5 -130t41.5 -81q-2 12 -3 23.5t-1 23.5v303q0 132 -78 234z" />
<glyph unicode="&#xa1;" horiz-adv-x="374" d="M49 -209l109 1002h59l53 -500q14 -125 35 -251t21 -255q0 -59 -41 -97t-99 -38q-63 0 -100 40t-37 99zM49 1040q0 59 39 99.5t98 40.5t99.5 -40t40.5 -100q0 -59 -40 -98t-100 -39q-59 0 -98 39t-39 98zM109 -217q0 -45 49 -66v523l-25 -226q-6 -55 -15 -115.5t-9 -115.5 zM109 1040q0 -25 14 -43t35 -28v145q-23 -10 -36 -30.5t-13 -43.5zM217 238v-523q23 10 36 26.5t13 45.5zM217 969q23 10 36 28.5t13 42.5q0 25 -13 45.5t-36 28.5v-145z" />
<glyph unicode="&#xa2;" horiz-adv-x="919" d="M49 637v414q0 88 33 165.5t90 137t134 94.5t165 37v143h59v-143q92 -2 165 -57.5t116 -133.5v162h59v-500h-59q0 96 -12 189q-6 49 -28.5 98t-58.5 89t-82 65.5t-100 27.5v-1165q70 2 122.5 39t88 91t53 119.5t17.5 127.5h59q0 -74 -22.5 -150.5t-65.5 -139 t-106.5 -103.5t-145.5 -43v-367h-59v367q-88 2 -165 37.5t-134 95t-90 137.5t-33 166zM109 637q0 -49 12 -97t39 -91q0 193 -1 385t-1 385l2 20q-27 -43 -39 -91t-12 -97v-414zM217 475q0 -43 20.5 -80.5t55.5 -64.5q-27 53 -27 108v809q0 53 27 111q-35 -27 -55.5 -65 t-20.5 -81v-737zM326 438q0 -63 41 -113.5t104 -60.5v1159q-63 -12 -104 -61t-41 -115v-809z" />
<glyph unicode="&#xa3;" horiz-adv-x="1024" d="M49 0v59q37 0 69 14.5t56.5 39t37.5 56.5t13 69v323h-69v60h69v387q0 59 2 110t14.5 97.5t38 90.5t72.5 91q68 68 145.5 98.5t170.5 30.5q59 0 105 -18.5t85 -63.5v61h60v-364h-60q0 27 1 52.5t1 51.5q0 47 -9 90t-44 78q-53 53 -127 53q-37 0 -68.5 -14t-55.5 -38.5 t-38 -56.5t-14 -69v-667h186v-60h-186v-125q0 -117 -58.5 -217t-158.5 -160h487q72 0 106.5 50.5t34.5 115.5q0 37 -11 73t-40 64l41 44q33 -33 51.5 -79t18.5 -91q0 -47 -12.5 -90.5t-37 -76t-62.5 -51t-89 -18.5h-725zM285 211q51 90 51 188v879q-23 -43 -37 -91t-14 -97 q0 -160 1 -319t1 -318v-215q0 -4 -1 -10.5t-1 -16.5zM324 160q80 78 100 158.5t20 175.5q0 35 -1 69.5t-1 73.5v651q0 56 27 109q-35 -25 -54.5 -64t-19.5 -82v-637q0 -39 1 -75.5t1 -71.5q0 -82 -13 -158t-60 -149z" />
<glyph unicode="&#xa4;" horiz-adv-x="1028" d="M49 672l25 61h84v60h-109l25 59h84v238q0 98 35.5 178t97 137t144.5 89t177 32q106 0 181 -50.5t125 -142.5v162h61v-498h-61q0 47 -2.5 95.5t-8.5 95.5q-6 55 -31.5 105t-64.5 89t-90 61.5t-109 22.5q-74 0 -126 -52t-52 -126v-436h393l-24 -59h-369v-60h344l-24 -61 h-320v-434q0 -74 52.5 -126.5t125.5 -52.5q57 0 108.5 22.5t90.5 61.5t64.5 89.5t31.5 105.5q6 47 8.5 93t2.5 93h61v-499h-61v168q-49 -92 -124 -142.5t-182 -50.5q-94 0 -177 31.5t-144.5 89t-97 137.5t-35.5 178v236h-109zM217 436q0 -98 47 -186v1024q-25 -41 -36 -89 t-11 -95v-654zM324 174q20 -20 42.5 -38t49.5 -32q-41 57 -41 129v1059q0 72 41 129q-27 -14 -49.5 -31.5t-42.5 -37.5v-1178z" />
<glyph unicode="&#xa5;" horiz-adv-x="1196" d="M49 672v61h184q-10 14 -19 28.5t-19 31.5h-146v59h119q-25 70 -25 145v469h-80v60h478v-60h-121v-667q0 -74 52 -126t126 -52t126 52t52 126v667h-121v60h475v-60h-77v-235q0 -41 2 -83t2 -85q0 -53 -6.5 -107.5t-22.5 -103.5h119v-59h-146q-10 -16 -19 -30.5t-19 -29.5 h184v-61h-240q-76 -66 -172 -94v-519h109v-59h-494v59h109v519q-94 27 -170 94h-240zM203 997q0 -76 29.5 -145.5t84.5 -122.5q-33 51 -49 111.5t-16 120.5v505h-49v-469zM311 961q0 -49 13.5 -96.5t35.5 -90.5v692h-49v-505zM518 59h49v502q-8 2 -17 2t-32 2v-506zM627 59 h49v506l-49 -4v-502zM834 774q49 86 49 187v505h-47q0 -23 1 -75t1 -118.5t1 -142t1 -143.5q0 -82 -1 -141.5t-5 -71.5zM883 733q53 53 81.5 121t28.5 143v469h-49v-252q0 -47 2 -92t2 -90q0 -78 -12 -152.5t-53 -146.5z" />
<glyph unicode="&#xa7;" horiz-adv-x="2918" d="M49 0v248q0 47 33 79.5t80 32.5h389v-94h-389q-18 0 -19 -18v-21h408v-94h-408v-133h-94zM49 1311v194h307v-661h-194v467h-113zM319 422v248q0 47 33 79.5t80 32.5h389v-92h-389q-18 0 -18 -20v-21h407v-94h-407v-133h-95zM489 844v307q0 74 28 138.5t76 112.5 t112.5 75.5t138.5 27.5h549v-305q0 -74 -28 -138.5t-76 -113.5t-112.5 -76.5t-138.5 -27.5h-549zM604 0v166q0 39 15.5 74.5t42 61.5t62.5 41t77 15h303v-165q0 -39 -15.5 -74t-42 -61.5t-61.5 -42t-74 -15.5h-307zM684 1038h354q66 0 113 47.5t47 114.5v111h-354 q-33 0 -62.5 -13.5t-51 -35t-34 -50t-12.5 -61.5v-113zM698 94h213q41 0 70 29t29 70v73h-209q-41 0 -72 -29.5t-31 -70.5v-72zM909 422v360h529v-125q0 -55 -38 -96t-91 -47l86 -92h-127l-86 92h-135v94h247q23 0 36 13.5t13 35.5v31h-339v-266h-95zM1188 0v358h53 q135 0 246 -86q37 -29 66.5 -63.5t52.5 -75.5v227h92v-360h-137q-16 61 -47 109.5t-84 89.5q-68 51 -148 63v-262h-94zM1516 537q0 37 22 65q-23 29 -22 68q0 47 33.5 79.5t80.5 32.5h387v-92h-387q-20 0 -20 -20t20 -21h387v-94h-387q-20 0 -20 -18q0 -20 20 -21h387v-94 h-387q-47 0 -80.5 33.5t-33.5 81.5zM1526 844v307q0 74 27.5 138.5t76.5 112.5t113.5 75.5t138.5 27.5h547v-305q0 -74 -27.5 -138.5t-76 -113.5t-113 -76.5t-137.5 -27.5h-549zM1720 1038h355q66 0 112.5 47.5t46.5 114.5v111h-352q-68 0 -115 -47t-47 -113v-113zM1778 266 v94h518v-94h-264v-172h112v-94h-207v266h-159zM2097 537q0 37 23 65q-23 29 -23 68q0 47 33 79.5t80 32.5h389v-92h-389q-20 0 -21 -20q0 -20 21 -21h389v-94h-389q-20 0 -21 -18q0 -20 21 -21h389v-94h-389q-47 0 -80 33.5t-33 81.5zM2361 0v94h328q47 0 74 39h-402v47 q0 74 52.5 127t126.5 53h329v-94h-329q-45 0 -72 -39h401v-47q0 -74 -52 -127t-128 -53h-328zM2562 1311v194h307v-661h-194v467h-113z" />
<glyph unicode="&#xa8;" horiz-adv-x="436" d="M49 1198q0 33 22.5 55.5t55.5 22.5t55.5 -22.5t22.5 -55.5t-22.5 -55.5t-55.5 -22.5t-55.5 22.5t-22.5 55.5zM109 1198q0 -8 4 -12q6 -6 14 -6t12 4q6 6 6 14t-4 12q-6 6 -14 7q-8 0 -12 -5q-6 -6 -6 -14zM231 1198q0 33 22.5 55.5t55.5 22.5t55.5 -22.5t22.5 -55.5 t-22.5 -55.5t-55.5 -22.5t-55.5 22.5t-22.5 55.5zM291 1198q0 -8 4 -12q6 -6 14 -6t13 4q6 6 6 14t-4 12q-6 6 -15 7q-8 0 -12 -5q-6 -6 -6 -14z" />
<glyph unicode="&#xa9;" horiz-adv-x="1591" d="M49 762q0 154 58.5 290t160 237.5t237.5 160.5t290 59t290 -59t237 -160.5t160.5 -238t59.5 -289.5q0 -154 -59.5 -290t-160.5 -237.5t-237.5 -160t-289.5 -58.5q-154 0 -290 58.5t-237.5 160t-160 237.5t-58.5 290zM111 762q0 -141 53 -266t146 -218.5t218 -146.5 t267 -53q141 0 266 53t218 146.5t147.5 218.5t54.5 266t-54.5 266t-147.5 218t-218 147.5t-266 54.5t-266.5 -54.5t-218.5 -147.5t-146 -218t-53 -266zM424 487v525q0 80 28.5 144.5t79 110.5t117 71.5t142.5 25.5q86 0 146 -40t101 -116v156h47v-426h-47q0 39 -2 77t-6 77 q-6 45 -26.5 86t-52 71.5t-72.5 49t-88 18.5q-59 0 -101.5 -42t-42.5 -101v-848q0 -59 42 -101.5t102 -42.5q61 0 108 27t78 71t46 98t15 109h47q0 -66 -19 -129t-56 -112t-92.5 -80t-126.5 -31q-76 0 -142.5 25.5t-117 73t-79 112t-28.5 141.5zM473 487q0 -41 9.5 -79.5 t31.5 -73.5v831q-23 -35 -32 -73.5t-9 -79.5v-525zM559 356q0 -35 16.5 -65.5t45.5 -50.5q-20 45 -21 86v848q0 41 21 86q-29 -20 -45.5 -51t-16.5 -66v-787z" />
<glyph unicode="&#xaa;" horiz-adv-x="645" d="M49 831v60h60v428q0 92 62 149.5t151 57.5q90 0 152.5 -57.5t62.5 -149.5v-428h59v-60h-248v60h35v184h-121v-184h35v-60h-248zM168 891h35v522q-16 -20 -25.5 -42.5t-9.5 -47.5v-432zM262 1135h121v270q0 27 -17.5 44t-43.5 17q-25 0 -42.5 -18t-17.5 -43v-270zM442 891 h35v432q0 51 -35 90v-522z" />
<glyph unicode="&#xab;" horiz-adv-x="1024" d="M49 807l297 297l121 -121l121 121l162 -162l-134 -135l134 -135l-162 -162l-121 121l-121 -121zM133 807l213 -213l19 18l-195 195l195 194l-19 19zM254 807l152 -152l18 17l-133 135l133 135l-18 16zM375 807l213 -213l18 18l-194 195l194 194l-18 19zM496 807l151 -152 l19 17l-134 135l134 135l-19 16z" />
<glyph unicode="&#xac;" horiz-adv-x="778" d="M49 592v276h680v-417h-276v141h-404zM109 651h403v-141h49v190h-452v-49zM109 760h512v-250h49v299h-561v-49z" />
<glyph unicode="&#xad;" horiz-adv-x="573" d="M49 592v276h475v-276h-475zM109 651h356v49h-356v-49zM109 760h356v49h-356v-49z" />
<glyph unicode="&#xae;" horiz-adv-x="804" d="M49 1176q0 74 27.5 138t76 112.5t112 76t136.5 27.5q74 0 138.5 -27.5t112.5 -76t76 -113t28 -137.5q0 -74 -28 -137.5t-76 -111.5t-112.5 -76t-138.5 -28t-137 28t-111.5 76t-76 111.5t-27.5 137.5zM90 1176q0 -66 24.5 -122.5t66.5 -98.5t98.5 -66.5t121.5 -24.5 q66 0 123.5 24.5t99.5 66.5t66.5 98.5t24.5 122.5t-24.5 123t-66.5 99t-99.5 66.5t-123.5 24.5t-122 -24.5t-98 -66.5t-66.5 -99t-24.5 -123zM250 948v17h33v434h-33v18h170q45 0 75.5 -31.5t30.5 -76.5v-82q0 -29 -15 -53.5t-40 -40.5q31 -8 51 -37q14 -20 17.5 -40 t3.5 -42v-49h30v-17h-143v17h27v110q0 18 -13.5 31.5t-31.5 13.5h-45v-155h28v-17h-145zM367 1139h26q18 0 31.5 13t13.5 32v170q0 18 -13 31.5t-32 13.5h-26v-260z" />
<glyph unicode="&#xaf;" horiz-adv-x="573" d="M49 1130v168h475v-170zM109 1190h356v49h-356v-49z" />
<glyph unicode="&#xb0;" horiz-adv-x="526" d="M49 1221v98q0 92 62.5 149.5t152.5 57.5q88 0 150.5 -58.5t62.5 -148.5v-98q0 -90 -62.5 -148.5t-150.5 -58.5q-90 0 -152.5 57t-62.5 150zM111 1217q0 -49 34 -91v287q-35 -39 -34 -90v-106zM205 1135q0 -25 17.5 -42.5t41.5 -17.5q25 0 42.5 17.5t17.5 42.5v270 q0 25 -18.5 43t-45.5 18q-25 0 -40 -19.5t-15 -41.5v-270zM383 1126q35 39 35 91v106q0 51 -35 90v-287z" />
<glyph unicode="&#xb1;" horiz-adv-x="778" d="M49 0v276h680v-276h-680zM49 592v276h201v201h276v-201h203v-276h-203v-203h-276v203h-201zM109 59h561v50h-561v-50zM109 168h561v49h-561v-49zM109 651h200v-202h49v251h-249v-49zM109 760h249v250h-49v-201h-200v-49zM418 449h49v202h203v49h-252v-251zM418 760h252 v49h-203v201h-49v-250z" />
<glyph unicode="&#xb2;" horiz-adv-x="581" d="M31 588l344 715q8 16 13 35.5t5 39.5q0 39 -25.5 64.5t-64.5 25.5q-66 0 -103.5 -45t-66.5 -98l-12 -20h-70l148 251h65l-22 -40q18 6 35.5 8t35.5 2q49 0 92.5 -18.5t74 -50.5t48 -74t17.5 -91q0 -37 -12.5 -66.5t-26.5 -60.5l-12 -24q-59 -129 -114.5 -247t-115.5 -247 h193v164h59v-223h-485zM125 647h74l258 545q10 23 18 52.5t8 62.5q0 25 -7 49t-23 47q2 -10 2 -27q0 -29 -8.5 -54.5t-20.5 -49.5z" />
<glyph unicode="&#xb3;" horiz-adv-x="630" d="M29 1303l147 251h57l-6 -28h363l-217 -342q100 -14 160.5 -91t60.5 -180v-53q0 -61 -22.5 -111.5t-61.5 -87t-91.5 -56t-109.5 -19.5t-100 24.5t-73 64.5t-45 92t-15 105h59q0 -37 10.5 -76.5t31 -73.5t51 -55.5t69.5 -21.5q41 0 73.5 26.5t32.5 69.5v291 q0 41 -27.5 68.5t-68.5 27.5h-178l209 338h-148l-94 -163h-67zM236 1188h69l174 278h-69zM459 698q25 25 49 70t24 92v53q0 59 -22.5 104.5t-50.5 63.5q4 -10 4 -21v-22v-301v-19t-4 -20z" />
<glyph unicode="&#xb4;" horiz-adv-x="505" d="M49 1165v64l408 100v-164h-408zM281 1225h114v28z" />
<glyph unicode="&#xb6;" horiz-adv-x="1095" d="M49 348v830q0 72 26.5 135t74 110t111 75t134.5 28h652v-60h-103v-1767h-59v1767h-49v-1767h-60v1767h-49v-1767h-59v301h-273q-72 0 -135 27.5t-110.5 75t-74 110.5t-26.5 135zM109 344q0 -47 17 -93t46 -83q-10 35 -10 63v1051q0 23 4 44.5t14 41.5q-35 -39 -53 -86 t-18 -100v-838zM221 231q0 -41 22.5 -76.5t59.5 -54.5q-16 23 -23.5 50.5t-7.5 56.5v1112q0 49 21 90q-33 -20 -52.5 -54t-19.5 -73v-1051zM332 207q0 -59 44 -103.5t103 -44.5h189v1407h-189q-61 0 -104 -43t-43 -104v-1112z" />
<glyph unicode="&#xb7;" horiz-adv-x="374" d="M49 766q0 59 41 98t98 39q59 0 98.5 -39t39.5 -98q0 -57 -39 -98t-99 -41q-59 0 -99 40t-40 99zM109 766q0 -25 13 -44.5t36 -29.5v146q-23 -10 -36 -30t-13 -42zM217 692q23 10 36 29.5t13 44.5t-13 44t-36 28v-146z" />
<glyph unicode="&#xb8;" horiz-adv-x="454" d="M49 -397l25 59h88q31 0 63.5 4t58 17.5t43 40t17.5 69.5q0 37 -13.5 61.5t-36 39t-52 19.5t-60.5 5q12 33 25.5 63.5t28.5 61.5l53 -23l-21 -51q61 -16 99.5 -65.5t38.5 -112.5q0 -76 -54 -129q-39 -39 -88 -49t-102 -10h-113zM90 -301l25 59h59q20 0 47 6.5t27 28.5 q0 18 -14.5 24.5t-34.5 6.5h-58l25 57h55q37 0 62.5 -26.5t25.5 -63.5q0 -47 -40 -69.5t-95 -22.5h-84z" />
<glyph unicode="&#xb9;" horiz-adv-x="444" d="M29 1300l131 224h188v-881h60v-59h-308v59h58v758l-60 -101h-69zM219 643h70v821h-70v-821z" />
<glyph unicode="&#xba;" horiz-adv-x="526" d="M49 1036v283q0 92 62.5 149.5t152.5 57.5q88 0 150.5 -58.5t62.5 -148.5v-283q0 -90 -62.5 -148.5t-150.5 -58.5q-90 0 -152.5 57.5t-62.5 149.5zM111 1032q0 -25 11.5 -50.5t27.5 -43.5q0 2 -1.5 11t-2.5 53.5t-1 139.5v271q-35 -39 -34 -90v-291zM205 950 q0 -25 17.5 -42t41.5 -17q25 0 42.5 17.5t17.5 41.5v455q0 25 -18.5 43t-45.5 18q-25 0 -40 -19.5t-15 -41.5v-455zM383 942q35 39 35 90v291q0 51 -35 90v-471z" />
<glyph unicode="&#xbb;" horiz-adv-x="798" d="M49 672l133 135l-133 135l162 162l121 -121l121 121l297 -297l-297 -297l-121 121l-121 -121zM133 672l19 -17l151 152l-151 151l-19 -16l133 -135zM193 612l18 -18l213 213l-213 213l-18 -19l194 -194zM375 672l18 -17l152 152l-152 151l-18 -16l133 -135zM434 612 l19 -18l213 213l-213 213l-19 -19l195 -194z" />
<glyph unicode="&#xbc;" horiz-adv-x="1679" d="M49 1282l144 248h215v-1100h73v-45h-354v45h72v1020l-99 -168h-51zM244 430h37v1055h-37v-1055zM326 430h36v1055h-36v-1055zM332 0l876 1528h256l-876 -1528h-256zM416 49h41l825 1430h-45zM514 49h47l819 1430h-41zM922 420l421 725h201v-680h86v-45h-86v-375h74v-45 h-354v45h73v375h-415zM999 465h338v579zM1382 45h37v1055h-37v-1055zM1464 45h37v1055h-37v-1055z" />
<glyph unicode="&#xbd;" horiz-adv-x="1851" d="M49 1282l144 248h215v-1100h73v-45h-354v45h72v1020l-99 -168h-51zM244 430h37v1055h-37v-1055zM326 430h36v1055h-36v-1055zM332 0l876 1528h256l-876 -1528h-256zM416 49h41l825 1430h-45zM514 49h47l819 1430h-41zM1200 0l418 870q10 23 18.5 48.5t8.5 54.5 q0 53 -38 90t-91 37q-47 0 -82 -18.5t-63 -48t-49.5 -65.5t-41.5 -71h-53l166 283h53l-39 -66q61 29 123 29q59 0 109.5 -21.5t86 -59.5t56 -89.5t20.5 -108.5q0 -53 -19.5 -95t-41.5 -89l-297 -635h280v203h43v-248h-567zM1270 45h41l381 801q10 25 20 49t10 53t-15 57.5 t-38 47.5q10 -18 15.5 -40t5.5 -44q0 -33 -9.5 -64t-23.5 -59zM1360 45h35q59 123 114.5 246t114.5 246q29 66 61.5 129t57.5 129q10 23 12 39.5t2 39.5q0 10 -2 13q-4 -16 -11 -30.5t-13 -31.5z" />
<glyph unicode="&#xbe;" horiz-adv-x="1804" d="M49 1245l164 283h53l-22 -35h452q-70 -106 -137 -211.5t-133 -214.5q61 -6 114.5 -34.5t91.5 -71.5t59.5 -99.5t21.5 -118.5v-67q0 -74 -27 -134.5t-73 -103.5t-108 -66.5t-132 -23.5q-68 0 -119 27.5t-86 74t-53.5 105.5t-18.5 121h45q0 -47 14.5 -96.5t42 -91.5 t67.5 -68.5t93 -26.5q25 0 48.5 5t44.5 22q27 18 41 47t14 59v365q0 55 -40 95t-95 40h-197l264 422h-221l-117 -203h-51zM254 1069h37l233 379h-35zM342 1069h33l239 379h-36zM457 0l876 1528h256l-876 -1528h-256zM530 446q27 18 41.5 47t14.5 60v311q0 33 -15.5 60.5 t-40.5 46.5q18 -37 19 -80v-365q0 -43 -19 -80zM541 49h41l825 1430h-45zM629 528q39 72 39 148v67q0 76 -39 142v-357zM639 49h47l819 1430h-41zM1047 420l421 725h201v-680h86v-45h-86v-375h74v-45h-354v45h73v375h-415zM1124 465h338v579zM1507 45h37v1055h-37v-1055z M1589 45h37v1055h-37v-1055z" />
<glyph unicode="&#xbf;" horiz-adv-x="843" d="M49 35q0 70 24.5 137.5t73.5 116.5l261 258q47 45 57 111.5t10 125.5h62q0 -53 2 -103t2 -103q0 -66 -12.5 -146t-53.5 -135l-192 -268q-20 -29 -35 -58.5t-15 -64.5q0 -37 13.5 -70t37 -57.5t54.5 -38.5t68 -14q96 0 172.5 42t121.5 128q-10 -4 -22 -5.5t-23 -1.5 q-57 0 -97 39t-40 97q0 57 39 98t98 41t99.5 -40t40.5 -99q0 -78 -33 -143.5t-86 -114t-124 -76t-144 -27.5q-74 0 -139.5 31t-114 82t-77 118.5t-28.5 139.5zM109 37q0 -4 1 -16.5t3 -24.5q2 -15 4 -31q2 84 42 150.5t92 127t105.5 121t83.5 132.5l-250 -250 q-41 -41 -61 -95.5t-20 -113.5zM176 -66q6 53 47 116t91.5 126.5t95.5 124.5t55 115q-37 -61 -87 -114.5t-95 -108t-76 -117t-31 -142.5zM356 1065q0 59 39 99t99 40q59 0 99 -40t40 -99t-40 -98t-99 -39t-98.5 39t-39.5 98zM416 1065q0 -25 14 -43t35 -29v146 q-23 -10 -36 -30.5t-13 -43.5zM524 993q23 10 36 28.5t13 43.5t-13 45t-36 29v-146zM578 25q0 -23 13 -41.5t36 -28.5v143q-23 -10 -36 -30t-13 -43zM686 -47q23 10 36 29.5t13 44.5q0 51 -49 71v-145z" />
<glyph unicode="&#xc0;" d="M49 0v59h80v1031q0 98 36 178t97.5 137t144 89t177.5 32q94 0 177 -32t144.5 -89t97 -138t35.5 -177v-1031h78v-59h-434v59h78v506h-354v-506h77v-59h-434zM188 59h50v1215q-27 -41 -38.5 -89t-11.5 -95v-1031zM297 59h49v1229q0 35 9 69.5t32 63.5q-51 -29 -90 -67 v-1295zM379 1577v164l408 -100v-64h-408zM406 625h354v663q0 37 -14.5 69t-38 56.5t-55 38.5t-68.5 14q-74 0 -126 -52t-52 -126v-663zM441 1636h114l-114 29v-29zM778 1421q43 -59 43 -133v-1229h45v1297q-18 20 -41.5 35.5t-46.5 29.5zM926 59h53v1031q0 51 -14.5 98 t-38.5 92v-1221z" />
<glyph unicode="&#xc1;" d="M49 0v59h80v1031q0 98 36 178t97.5 137t144 89t177.5 32q94 0 177 -32t144.5 -89t97 -138t35.5 -177v-1031h78v-59h-434v59h78v506h-354v-506h77v-59h-434zM188 59h50v1215q-27 -41 -38.5 -89t-11.5 -95v-1031zM297 59h49v1229q0 35 9 69.5t32 63.5q-51 -29 -90 -67 v-1295zM379 1587v64l408 100v-164h-408zM406 625h354v663q0 37 -14.5 69t-38 56.5t-55 38.5t-68.5 14q-74 0 -126 -52t-52 -126v-663zM611 1647h114v28zM778 1421q43 -59 43 -133v-1229h45v1297q-18 20 -41.5 35.5t-46.5 29.5zM926 59h53v1031q0 51 -14.5 98t-38.5 92v-1221 z" />
<glyph unicode="&#xc2;" d="M49 0v59h80v1031q0 98 36 178t97.5 137t144 89t177.5 32q94 0 177 -32t144.5 -89t97 -138t35.5 -177v-1031h78v-59h-434v59h78v506h-354v-506h77v-59h-434zM188 59h50v1215q-27 -41 -38.5 -89t-11.5 -95v-1031zM297 59h49v1229q0 35 9 69.5t32 63.5q-51 -29 -90 -67 v-1295zM330 1600l254 190l252 -190l-16 -54h-154l-82 62l-82 -62h-153zM406 625h354v663q0 37 -14.5 69t-38 56.5t-55 38.5t-68.5 14q-74 0 -126 -52t-52 -126v-663zM439 1606h45l100 76l100 -76h46l-146 110zM778 1421q43 -59 43 -133v-1229h45v1297q-18 20 -41.5 35.5 t-46.5 29.5zM926 59h53v1031q0 51 -14.5 98t-38.5 92v-1221z" />
<glyph unicode="&#xc3;" d="M49 0v59h80v1031q0 98 36 178t97.5 137t144 89t177.5 32q94 0 177 -32t144.5 -89t97 -138t35.5 -177v-1031h78v-59h-434v59h78v506h-354v-506h77v-59h-434zM188 59h50v1215q-27 -41 -38.5 -89t-11.5 -95v-1031zM297 59h49v1229q0 35 9 69.5t32 63.5q-51 -29 -90 -67 v-1295zM307 1630q0 39 15.5 71t41 53.5t58.5 32.5t69 11q20 0 57.5 -13t75 -29.5t71.5 -30t46 -13.5q16 0 32.5 15.5t16.5 33.5q0 6 -4 15l56 20q16 -31 16 -71q0 -39 -15.5 -71t-41 -53.5t-58 -32.5t-69.5 -11q-20 0 -55 13t-73 29.5t-72 30t-50 13.5q-18 0 -33.5 -16.5 t-15.5 -33.5q0 -6 4 -14l-55 -20q-16 37 -17 71zM389 1694q18 6 37 6q29 0 62.5 -13.5t69.5 -28.5t69.5 -28.5t60.5 -13.5t50.5 12.5t39.5 32.5q-18 -6 -39 -6q-29 0 -61.5 13.5t-66.5 28.5t-67.5 28.5t-64.5 13.5q-57 0 -90 -45zM406 625h354v663q0 37 -14.5 69t-38 56.5 t-55 38.5t-68.5 14q-74 0 -126 -52t-52 -126v-663zM778 1421q43 -59 43 -133v-1229h45v1297q-18 20 -41.5 35.5t-46.5 29.5zM926 59h53v1031q0 51 -14.5 98t-38.5 92v-1221z" />
<glyph unicode="&#xc4;" d="M49 0v59h80v1031q0 98 36 178t97.5 137t144 89t177.5 32q94 0 177 -32t144.5 -89t97 -138t35.5 -177v-1031h78v-59h-434v59h78v506h-354v-506h77v-59h-434zM188 59h50v1215q-27 -41 -38.5 -89t-11.5 -95v-1031zM297 59h49v1229q0 35 9 69.5t32 63.5q-51 -29 -90 -67 v-1295zM406 625h354v663q0 37 -14.5 69t-38 56.5t-55 38.5t-68.5 14q-74 0 -126 -52t-52 -126v-663zM414 1620q0 33 22.5 55.5t55.5 22.5t55.5 -22.5t22.5 -55.5t-22.5 -55.5t-55.5 -22.5t-55.5 22.5t-22.5 55.5zM474 1620q0 -8 4 -12q6 -6 14 -6t12 4q6 6 6 14t-4 12 q-6 6 -14 7q-8 0 -12 -5q-6 -6 -6 -14zM596 1620q0 33 22.5 55.5t55.5 22.5t55.5 -22.5t22.5 -55.5t-22.5 -55.5t-55.5 -22.5t-55.5 22.5t-22.5 55.5zM656 1620q0 -8 4 -12q6 -6 14 -6t13 4q6 6 6 14t-4 12q-6 6 -15 7q-8 0 -12 -5q-6 -6 -6 -14zM778 1421q43 -59 43 -133 v-1229h45v1297q-18 20 -41.5 35.5t-46.5 29.5zM926 59h53v1031q0 51 -14.5 98t-38.5 92v-1221z" />
<glyph unicode="&#xc5;" d="M49 0v59h80v1031q0 98 36 178t97.5 137t144 89t177.5 32q94 0 177 -32t144.5 -89t97 -138t35.5 -177v-1031h78v-59h-434v59h78v506h-354v-506h77v-59h-434zM188 59h50v1215q-27 -41 -38.5 -89t-11.5 -95v-1031zM297 59h49v1229q0 35 9 69.5t32 63.5q-51 -29 -90 -67 v-1295zM395 1655q0 78 54.5 132.5t132.5 54.5t132 -54.5t54 -132.5t-54.5 -132t-131.5 -54q-78 0 -132.5 54t-54.5 132zM406 625h354v663q0 37 -14.5 69t-38 56.5t-55 38.5t-68.5 14q-74 0 -126 -52t-52 -126v-663zM455 1655q0 -53 37.5 -89t89.5 -36q53 0 88.5 36t35.5 89 t-35.5 90t-88.5 37t-90 -37t-37 -90zM491 1655q0 37 27 63.5t64 26.5t63.5 -26.5t26.5 -63.5t-27 -63.5t-63 -26.5q-37 0 -64 26.5t-27 63.5zM551 1655q0 -12 9 -20.5t22 -8.5q28 0 28 29q0 12 -8 21.5t-20 9.5t-21.5 -9.5t-9.5 -21.5zM778 1421q43 -59 43 -133v-1229h45 v1297q-18 20 -41.5 35.5t-46.5 29.5zM926 59h53v1031q0 51 -14.5 98t-38.5 92v-1221z" />
<glyph unicode="&#xc6;" horiz-adv-x="1472" d="M49 0v59h78v1031q0 90 34 169.5t93 139t139 93.5t170 34h860v-256h-61v196h-373v-845h221v88h62v-234h-62v86h-221v-502h373v197h61v-256h-811v59h99v506h-308v-506h80v-59h-434zM186 59h50v1215q-49 -84 -50 -184v-1031zM295 59h49v1229q0 35 11.5 69.5t29.5 63.5 q-51 -29 -90 -67v-1295zM403 625h308v841h-129q-74 0 -126.5 -52t-52.5 -126v-663zM770 59h49v1407h-49v-1407zM879 59h49v1407h-49v-1407z" />
<glyph unicode="&#xc7;" horiz-adv-x="919" d="M49 436v654q0 98 36 178t97.5 137t144.5 89t177 32q106 0 182 -50.5t125 -142.5v193h59v-529h-59q0 47 -2 95.5t-8 95.5q-8 55 -34 106.5t-64.5 89t-90 60t-108.5 22.5q-74 0 -126 -52t-52 -126v-1050q0 -74 52 -126.5t126 -52.5q76 0 134 33t96 87t57.5 122t19.5 135h59 q0 -82 -23.5 -159.5t-69.5 -139t-114.5 -99.5t-158.5 -38q-94 0 -177 31.5t-144.5 90t-97.5 138.5t-36 176zM109 436q0 -49 12 -97t39 -91v1030q-27 -43 -39 -91t-12 -97v-654zM217 274q0 -43 20.5 -80.5t55.5 -64.5q-27 53 -27 109v1050q0 55 27 109q-35 -27 -55.5 -65 t-20.5 -81v-977zM280 -397l25 59h88q31 0 63.5 4t58 17.5t43 40t17.5 69.5q0 37 -13.5 61.5t-36 39t-52 19.5t-60.5 5q12 33 25.5 63.5t28.5 61.5l53 -23l-21 -51q61 -16 99.5 -65.5t38.5 -112.5q0 -76 -54 -129q-39 -39 -88 -49t-102 -10h-113zM321 -301l25 59h59 q20 0 47 6.5t27 28.5q0 18 -14.5 24.5t-34.5 6.5h-58l25 57h55q37 0 62.5 -26.5t25.5 -63.5q0 -47 -40 -69.5t-95 -22.5h-84z" />
<glyph unicode="&#xc8;" horiz-adv-x="909" d="M49 0v59h101v1407h-101v60h811v-256h-59v196h-375v-845h223v88h60v-234h-60v86h-223v-502h375v197h59v-256h-811zM209 59h49v1407h-49v-1407zM250 1577v164l408 -100v-64h-408zM312 1636h114l-114 29v-29zM317 59h50v1407h-50v-1407z" />
<glyph unicode="&#xc9;" horiz-adv-x="909" d="M49 0v59h101v1407h-101v60h811v-256h-59v196h-375v-845h223v88h60v-234h-60v86h-223v-502h375v197h59v-256h-811zM209 59h49v1407h-49v-1407zM250 1587v64l408 100v-164h-408zM317 59h50v1407h-50v-1407zM482 1647h114v28z" />
<glyph unicode="&#xca;" horiz-adv-x="909" d="M49 0v59h101v1407h-101v60h811v-256h-59v196h-375v-845h223v88h60v-234h-60v86h-223v-502h375v197h59v-256h-811zM201 1600l254 190l252 -190l-16 -54h-154l-82 62l-82 -62h-153zM209 59h49v1407h-49v-1407zM310 1606h45l100 76l100 -76h46l-146 110zM317 59h50v1407h-50 v-1407z" />
<glyph unicode="&#xcb;" horiz-adv-x="909" d="M49 0v59h101v1407h-101v60h811v-256h-59v196h-375v-845h223v88h60v-234h-60v86h-223v-502h375v197h59v-256h-811zM209 59h49v1407h-49v-1407zM285 1620q0 33 22.5 55.5t55.5 22.5t55.5 -22.5t22.5 -55.5t-22.5 -55.5t-55.5 -22.5t-55.5 22.5t-22.5 55.5zM317 59h50v1407 h-50v-1407zM345 1620q0 -8 4 -12q6 -6 14 -6t12 4q6 6 6 14t-4 12q-6 6 -14 7q-8 0 -12 -5q-6 -6 -6 -14zM467 1620q0 33 22.5 55.5t55.5 22.5t55.5 -22.5t22.5 -55.5t-22.5 -55.5t-55.5 -22.5t-55.5 22.5t-22.5 55.5zM527 1620q0 -8 4 -12q6 -6 14 -6t13 4q6 6 6 14t-4 12 q-6 6 -15 7q-8 0 -12 -5q-6 -6 -6 -14z" />
<glyph unicode="&#xcc;" horiz-adv-x="569" d="M49 0v59h96v1407h-96v60h471v-60h-98v-1407h98v-59h-471zM80 1577v164l408 -100v-64h-408zM142 1636h114l-114 29v-29zM205 59h49v1407h-49v-1407zM313 59h49v1407h-49v-1407z" />
<glyph unicode="&#xcd;" horiz-adv-x="569" d="M49 0v59h96v1407h-96v60h471v-60h-98v-1407h98v-59h-471zM80 1587v64l408 100v-164h-408zM205 59h49v1407h-49v-1407zM312 1647h114v28zM313 59h49v1407h-49v-1407z" />
<glyph unicode="&#xce;" horiz-adv-x="569" d="M35 1600l254 190l252 -190l-16 -54h-154l-82 62l-82 -62h-153zM49 0v59h96v1407h-96v60h471v-60h-98v-1407h98v-59h-471zM144 1606h45l100 76l100 -76h46l-146 110zM205 59h49v1407h-49v-1407zM313 59h49v1407h-49v-1407z" />
<glyph unicode="&#xcf;" horiz-adv-x="569" d="M49 0v59h96v1407h-96v60h471v-60h-98v-1407h98v-59h-471zM115 1620q0 33 22.5 55.5t55.5 22.5t55.5 -22.5t22.5 -55.5t-22.5 -55.5t-55.5 -22.5t-55.5 22.5t-22.5 55.5zM175 1620q0 -8 4 -12q6 -6 14 -6t12 4q6 6 6 14t-4 12q-6 6 -14 7q-8 0 -12 -5q-6 -6 -6 -14z M205 59h49v1407h-49v-1407zM297 1620q0 33 22.5 55.5t55.5 22.5t55.5 -22.5t22.5 -55.5t-22.5 -55.5t-55.5 -22.5t-55.5 22.5t-22.5 55.5zM313 59h49v1407h-49v-1407zM357 1620q0 -8 4 -12q6 -6 14 -6t13 4q6 6 6 14t-4 12q-6 6 -15 7q-8 0 -12 -5q-6 -6 -6 -14z" />
<glyph unicode="&#xd0;" horiz-adv-x="1038" d="M49 59h101v674h-99l-2 60h101v673h-101v60h504q90 0 170 -34t139.5 -93.5t93 -139t33.5 -169.5v-654q0 -90 -33.5 -170t-93 -139t-139.5 -93t-170 -34h-502zM209 59h49v1407h-49v-1407zM317 59h50v1407h-50v-1407zM426 59h109q74 0 126 52.5t52 126.5v1050 q0 74 -52.5 126t-125.5 52h-109v-673h109v-60h-109v-674zM745 129q37 23 55.5 62.5t18.5 82.5v977q0 43 -19.5 82t-54.5 64q27 -53 27 -109v-1050q0 -55 -27 -109zM879 248q27 43 39 91t12 97v654q0 49 -12.5 96t-38.5 88v-1026z" />
<glyph unicode="&#xd1;" d="M49 0v59h80v1461h59v-211q63 111 167 164t229 53q94 0 177 -32t144.5 -89t97 -138t35.5 -177v-1031h78v-59h-434v59h78v1229q0 76 -51.5 126t-126.5 50q-76 0 -126 -51t-50 -125v-1229h77v-59h-434zM188 59h50v1074q0 63 16 115.5t45 107.5q-53 -53 -82 -122t-29 -144 v-1031zM297 59h49v1229q0 23 2 33q-23 -39 -37 -90t-14 -98v-1074zM307 1630q0 39 15.5 71t41 53.5t58.5 32.5t69 11q20 0 57.5 -13t75 -29.5t71.5 -30t46 -13.5q16 0 32.5 15.5t16.5 33.5q0 6 -4 15l56 20q16 -31 16 -71q0 -39 -15.5 -71t-41 -53.5t-58 -32.5t-69.5 -11 q-20 0 -55 13t-73 29.5t-72 30t-50 13.5q-18 0 -33.5 -16.5t-15.5 -33.5q0 -6 4 -14l-55 -20q-16 37 -17 71zM389 1694q18 6 37 6q29 0 62.5 -13.5t69.5 -28.5t69.5 -28.5t60.5 -13.5t50.5 12.5t39.5 32.5q-18 -6 -39 -6q-29 0 -61.5 13.5t-66.5 28.5t-67.5 28.5t-64.5 13.5 q-57 0 -90 -45zM817 1323q2 -10 3 -17.5t1 -17.5v-1229h49v1074q0 47 -13 98t-40 92zM868 1354q29 -57 45.5 -106.5t16.5 -114.5v-1074h49v1031q0 76 -28.5 143t-82.5 121z" />
<glyph unicode="&#xd2;" horiz-adv-x="1007" d="M49 416v694q0 96 36 177t98.5 138.5t145.5 89t175 31.5q94 0 177 -31.5t144.5 -89t97 -138.5t35.5 -177v-694q0 -96 -34.5 -177t-96 -138.5t-144.5 -89t-177 -31.5q-96 0 -179 31.5t-144.5 89t-97.5 138t-36 177.5zM109 416q0 -78 30.5 -147t83.5 -122q-33 53 -49 107.5 t-16 120.5v778q0 53 15 115.5t48 107.5q-53 -53 -82.5 -121.5t-29.5 -144.5v-694zM217 369q0 -47 13.5 -96.5t37.5 -88.5q0 272 -1 562t-1 563q0 10 1 17t3 17q-25 -47 -39 -90t-14 -96v-788zM299 1577v164l408 -100v-64h-408zM326 217q0 -78 51 -128t129 -50 q37 0 68.5 14.5t55 39t38 56t14.5 68.5v1092q0 76 -52 126t-126 50t-126 -51.5t-52 -124.5v-1092zM361 1636h114l-114 29v-29zM739 180q23 47 38.5 92t15.5 99v786q0 61 -16.5 99t-37.5 92q2 -10 2 -19.5v-19.5v-1092v-18.5t-2 -18.5zM793 152q51 53 78.5 121.5t27.5 142.5 v694q0 72 -26.5 139.5t-77.5 120.5q27 -51 43 -101t16 -110v-790q0 -66 -19.5 -113t-41.5 -104z" />
<glyph unicode="&#xd3;" horiz-adv-x="1007" d="M49 416v694q0 96 36 177t98.5 138.5t145.5 89t175 31.5q94 0 177 -31.5t144.5 -89t97 -138.5t35.5 -177v-694q0 -96 -34.5 -177t-96 -138.5t-144.5 -89t-177 -31.5q-96 0 -179 31.5t-144.5 89t-97.5 138t-36 177.5zM109 416q0 -78 30.5 -147t83.5 -122q-33 53 -49 107.5 t-16 120.5v778q0 53 15 115.5t48 107.5q-53 -53 -82.5 -121.5t-29.5 -144.5v-694zM217 369q0 -47 13.5 -96.5t37.5 -88.5q0 272 -1 562t-1 563q0 10 1 17t3 17q-25 -47 -39 -90t-14 -96v-788zM299 1587v64l408 100v-164h-408zM326 217q0 -78 51 -128t129 -50q37 0 68.5 14.5 t55 39t38 56t14.5 68.5v1092q0 76 -52 126t-126 50t-126 -51.5t-52 -124.5v-1092zM531 1647h114v28zM739 180q23 47 38.5 92t15.5 99v786q0 61 -16.5 99t-37.5 92q2 -10 2 -19.5v-19.5v-1092v-18.5t-2 -18.5zM793 152q51 53 78.5 121.5t27.5 142.5v694q0 72 -26.5 139.5 t-77.5 120.5q27 -51 43 -101t16 -110v-790q0 -66 -19.5 -113t-41.5 -104z" />
<glyph unicode="&#xd4;" horiz-adv-x="1007" d="M49 416v694q0 96 36 177t98.5 138.5t145.5 89t175 31.5q94 0 177 -31.5t144.5 -89t97 -138.5t35.5 -177v-694q0 -96 -34.5 -177t-96 -138.5t-144.5 -89t-177 -31.5q-96 0 -179 31.5t-144.5 89t-97.5 138t-36 177.5zM109 416q0 -78 30.5 -147t83.5 -122q-33 53 -49 107.5 t-16 120.5v778q0 53 15 115.5t48 107.5q-53 -53 -82.5 -121.5t-29.5 -144.5v-694zM217 369q0 -47 13.5 -96.5t37.5 -88.5q0 272 -1 562t-1 563q0 10 1 17t3 17q-25 -47 -39 -90t-14 -96v-788zM250 1600l254 190l252 -190l-16 -54h-154l-82 62l-82 -62h-153zM326 217 q0 -78 51 -128t129 -50q37 0 68.5 14.5t55 39t38 56t14.5 68.5v1092q0 76 -52 126t-126 50t-126 -51.5t-52 -124.5v-1092zM359 1606h45l100 76l100 -76h46l-146 110zM739 180q23 47 38.5 92t15.5 99v786q0 61 -16.5 99t-37.5 92q2 -10 2 -19.5v-19.5v-1092v-18.5t-2 -18.5z M793 152q51 53 78.5 121.5t27.5 142.5v694q0 72 -26.5 139.5t-77.5 120.5q27 -51 43 -101t16 -110v-790q0 -66 -19.5 -113t-41.5 -104z" />
<glyph unicode="&#xd5;" horiz-adv-x="1007" d="M49 416v694q0 96 36 177t98.5 138.5t145.5 89t175 31.5q94 0 177 -31.5t144.5 -89t97 -138.5t35.5 -177v-694q0 -96 -34.5 -177t-96 -138.5t-144.5 -89t-177 -31.5q-96 0 -179 31.5t-144.5 89t-97.5 138t-36 177.5zM109 416q0 -78 30.5 -147t83.5 -122q-33 53 -49 107.5 t-16 120.5v778q0 53 15 115.5t48 107.5q-53 -53 -82.5 -121.5t-29.5 -144.5v-694zM217 369q0 -47 13.5 -96.5t37.5 -88.5q0 272 -1 562t-1 563q0 10 1 17t3 17q-25 -47 -39 -90t-14 -96v-788zM227 1630q0 39 15.5 71t41 53.5t58.5 32.5t69 11q20 0 57.5 -13t75 -29.5 t71.5 -30t46 -13.5q16 0 32.5 15.5t16.5 33.5q0 6 -4 15l56 20q16 -31 16 -71q0 -39 -15.5 -71t-41 -53.5t-58 -32.5t-69.5 -11q-20 0 -55 13t-73 29.5t-72 30t-50 13.5q-18 0 -33.5 -16.5t-15.5 -33.5q0 -6 4 -14l-55 -20q-16 37 -17 71zM309 1694q18 6 37 6 q29 0 62.5 -13.5t69.5 -28.5t69.5 -28.5t60.5 -13.5t50.5 12.5t39.5 32.5q-18 -6 -39 -6q-29 0 -61.5 13.5t-66.5 28.5t-67.5 28.5t-64.5 13.5q-57 0 -90 -45zM326 217q0 -78 51 -128t129 -50q37 0 68.5 14.5t55 39t38 56t14.5 68.5v1092q0 76 -52 126t-126 50t-126 -51.5 t-52 -124.5v-1092zM739 180q23 47 38.5 92t15.5 99v786q0 61 -16.5 99t-37.5 92q2 -10 2 -19.5v-19.5v-1092v-18.5t-2 -18.5zM793 152q51 53 78.5 121.5t27.5 142.5v694q0 72 -26.5 139.5t-77.5 120.5q27 -51 43 -101t16 -110v-790q0 -66 -19.5 -113t-41.5 -104z" />
<glyph unicode="&#xd6;" horiz-adv-x="1007" d="M49 416v694q0 96 36 177t98.5 138.5t145.5 89t175 31.5q94 0 177 -31.5t144.5 -89t97 -138.5t35.5 -177v-694q0 -96 -34.5 -177t-96 -138.5t-144.5 -89t-177 -31.5q-96 0 -179 31.5t-144.5 89t-97.5 138t-36 177.5zM109 416q0 -78 30.5 -147t83.5 -122q-33 53 -49 107.5 t-16 120.5v778q0 53 15 115.5t48 107.5q-53 -53 -82.5 -121.5t-29.5 -144.5v-694zM217 369q0 -47 13.5 -96.5t37.5 -88.5q0 272 -1 562t-1 563q0 10 1 17t3 17q-25 -47 -39 -90t-14 -96v-788zM326 217q0 -78 51 -128t129 -50q37 0 68.5 14.5t55 39t38 56t14.5 68.5v1092 q0 76 -52 126t-126 50t-126 -51.5t-52 -124.5v-1092zM334 1647q0 33 22.5 55.5t55.5 22.5t55.5 -22.5t22.5 -55.5t-22.5 -55.5t-55.5 -22.5t-55.5 22.5t-22.5 55.5zM394 1647q0 -8 4 -12q6 -6 14 -6t12 4q6 6 6 14t-4 12q-6 6 -14 7q-8 0 -12 -5q-6 -6 -6 -14zM516 1647 q0 33 22.5 55.5t55.5 22.5t55.5 -22.5t22.5 -55.5t-22.5 -55.5t-55.5 -22.5t-55.5 22.5t-22.5 55.5zM576 1647q0 -8 4 -12q6 -6 14 -6t13 4q6 6 6 14t-4 12q-6 6 -15 7q-8 0 -12 -5q-6 -6 -6 -14zM739 180q23 47 38.5 92t15.5 99v786q0 61 -16.5 99t-37.5 92q2 -10 2 -19.5 v-19.5v-1092v-18.5t-2 -18.5zM793 152q51 53 78.5 121.5t27.5 142.5v694q0 72 -26.5 139.5t-77.5 120.5q27 -51 43 -101t16 -110v-790q0 -66 -19.5 -113t-41.5 -104z" />
<glyph unicode="&#xd7;" horiz-adv-x="778" d="M51 588l144 143l-144 141l197 195l141 -141l141 141l197 -195l-143 -141l143 -143l-195 -197l-143 144l-143 -144zM135 588l35 -35l176 178l-176 176l-35 -35l144 -141zM211 510l35 -35l143 143l143 -143l35 35l-178 178zM213 948l176 -176l176 176l-35 35l-141 -141 l-141 141zM432 731l176 -178l35 35l-143 143l143 141l-35 35z" />
<glyph unicode="&#xd8;" horiz-adv-x="1052" d="M49 121l74 108q-51 98 -51 207v654q0 98 35.5 178t97 137t144.5 89t177 32q113 0 207 -42t162 -134l59 88l50 -35l-74 -107q51 -94 51 -206v-654q0 -96 -36 -177t-97.5 -138.5t-143 -89t-176.5 -31.5q-113 0 -206 41t-162 133l-62 -86zM131 436q0 -78 30 -146.5 t83 -121.5q-63 102 -64 227v738q0 61 16.5 115.5t45.5 107.5q-53 -53 -82 -122t-29 -144v-654zM240 389q0 -51 14 -95t37 -89q-2 10 -2 33q0 270 1 538t1 537v10q-20 -47 -35.5 -89t-15.5 -95v-750zM348 238q0 -78 51.5 -128.5t128.5 -50.5q35 0 67 14.5t56.5 39t39 57.5 t14.5 68v731l-357 -518v-213zM348 557l357 516v215q0 37 -14.5 69t-39 56.5t-56.5 37.5t-69 13q-74 0 -126 -51t-52 -125v-731zM760 1327q2 -10 3 -19.5t1 -19.5v-1050q0 -8 -1 -16.5t-1 -20.5q23 47 38 92t15 98v746q0 18 -4 44.5t-11 54.5t-17.5 52.5t-22.5 38.5zM813 172 q53 53 81 121.5t28 142.5v654q0 72 -28 139t-77 121q29 -55 43 -104.5t14 -112.5v-738q0 -119 -61 -223z" />
<glyph unicode="&#xd9;" d="M49 1466v60h434v-60h-77v-1228q0 -74 52 -126.5t126 -52.5q76 0 126 52.5t50 126.5v1228h-78v60h434v-60h-78v-1030q0 -180 -127 -307q-72 -72 -150.5 -100.5t-176.5 -28.5q-94 0 -177 31.5t-144.5 89t-97.5 137.5t-36 178v1030h-80zM188 436q0 -80 31 -151.5t90 -124.5 q-35 53 -54 114.5t-19 124.5v1067h-48v-1030zM297 399q0 -102 49 -188v1255h-49v-1067zM379 1577v164l408 -100v-64h-408zM441 1636h114l-114 29v-29zM819 211q51 90 51 188v1067h-49v-1228q0 -4 -1 -10.5t-1 -16.5zM856 160q59 53 91 125.5t32 150.5v1030h-49v-1067 q0 -63 -19.5 -124.5t-54.5 -114.5z" />
<glyph unicode="&#xda;" d="M49 1466v60h434v-60h-77v-1228q0 -74 52 -126.5t126 -52.5q76 0 126 52.5t50 126.5v1228h-78v60h434v-60h-78v-1030q0 -180 -127 -307q-72 -72 -150.5 -100.5t-176.5 -28.5q-94 0 -177 31.5t-144.5 89t-97.5 137.5t-36 178v1030h-80zM188 436q0 -80 31 -151.5t90 -124.5 q-35 53 -54 114.5t-19 124.5v1067h-48v-1030zM297 399q0 -102 49 -188v1255h-49v-1067zM379 1587v64l408 100v-164h-408zM611 1647h114v28zM819 211q51 90 51 188v1067h-49v-1228q0 -4 -1 -10.5t-1 -16.5zM856 160q59 53 91 125.5t32 150.5v1030h-49v-1067 q0 -63 -19.5 -124.5t-54.5 -114.5z" />
<glyph unicode="&#xdb;" d="M49 1466v60h434v-60h-77v-1228q0 -74 52 -126.5t126 -52.5q76 0 126 52.5t50 126.5v1228h-78v60h434v-60h-78v-1030q0 -180 -127 -307q-72 -72 -150.5 -100.5t-176.5 -28.5q-94 0 -177 31.5t-144.5 89t-97.5 137.5t-36 178v1030h-80zM188 436q0 -80 31 -151.5t90 -124.5 q-35 53 -54 114.5t-19 124.5v1067h-48v-1030zM297 399q0 -102 49 -188v1255h-49v-1067zM330 1600l254 190l252 -190l-16 -54h-154l-82 62l-82 -62h-153zM439 1606h45l100 76l100 -76h46l-146 110zM819 211q51 90 51 188v1067h-49v-1228q0 -4 -1 -10.5t-1 -16.5zM856 160 q59 53 91 125.5t32 150.5v1030h-49v-1067q0 -63 -19.5 -124.5t-54.5 -114.5z" />
<glyph unicode="&#xdc;" d="M49 1466v60h434v-60h-77v-1228q0 -74 52 -126.5t126 -52.5q76 0 126 52.5t50 126.5v1228h-78v60h434v-60h-78v-1030q0 -180 -127 -307q-72 -72 -150.5 -100.5t-176.5 -28.5q-94 0 -177 31.5t-144.5 89t-97.5 137.5t-36 178v1030h-80zM188 436q0 -80 31 -151.5t90 -124.5 q-35 53 -54 114.5t-19 124.5v1067h-48v-1030zM297 399q0 -102 49 -188v1255h-49v-1067zM414 1630q0 33 22.5 55.5t55.5 22.5t55.5 -22.5t22.5 -55.5t-22.5 -55.5t-55.5 -22.5t-55.5 22.5t-22.5 55.5zM474 1630q0 -8 4 -12q6 -6 14 -6t12 4q6 6 6 14t-4 12q-6 6 -14 7 q-8 0 -12 -5q-6 -6 -6 -14zM596 1630q0 33 22.5 55.5t55.5 22.5t55.5 -22.5t22.5 -55.5t-22.5 -55.5t-55.5 -22.5t-55.5 22.5t-22.5 55.5zM656 1630q0 -8 4 -12q6 -6 14 -6t13 4q6 6 6 14t-4 12q-6 6 -15 7q-8 0 -12 -5q-6 -6 -6 -14zM819 211q51 90 51 188v1067h-49v-1228 q0 -4 -1 -10.5t-1 -16.5zM856 160q59 53 91 125.5t32 150.5v1030h-49v-1067q0 -63 -19.5 -124.5t-54.5 -114.5z" />
<glyph unicode="&#xdd;" d="M49 1466v60h467v-60h-110v-667q0 -74 52 -126t126 -52q37 0 68.5 14t56 38.5t38 56.5t13.5 69v667h-109v60h465v-60h-78v-469q0 -74 -23.5 -140t-65.5 -121.5t-100 -96.5t-128 -61v-519h108v-59h-493v59h108v519q-72 20 -129 61t-99 96.5t-64.5 122t-22.5 139.5v469h-80z M188 997q0 -80 32 -152.5t91 -125.5q-35 53 -54 114.5t-19 127.5v505h-50v-469zM297 961q0 -100 49 -187v692h-49v-505zM379 1587v64l408 100v-164h-408zM504 59h49v502q-10 2 -31 2l-6 2h-12v-506zM611 1647h114v28zM612 59h50v506l-9 -2q-10 -2 -28 -2h-13v-502zM819 774 q49 86 49 187v505h-49v-692zM854 719q59 53 92 126t33 152v469h-51v-436q0 -84 -12.5 -161.5t-61.5 -149.5z" />
<glyph unicode="&#xde;" horiz-adv-x="993" d="M49 0v59h103v1405h-103v62h471v-62h-92v-168q33 0 68.5 2t70.5 2q25 0 49.5 -2t47.5 -6q59 -12 110 -43.5t89 -78t59.5 -102.5t21.5 -118v-270q0 -59 -22.5 -118.5t-62.5 -107.5t-93 -80t-115 -38q-23 -2 -47 -3t-49 -1q-33 0 -63.5 1t-63.5 1v-275h92v-59h-471zM211 59 h49v1405h-49v-1405zM319 59h50v1405h-50v-1405zM428 393h86q59 0 102 43t43 103v551q0 59 -42 103t-103 44h-86v-844zM666 401q47 10 74.5 50.5t27.5 87.5v551q0 47 -27.5 87t-74.5 52q29 -29 41 -65t12 -74v-551q0 -80 -53 -138zM827 508q29 35 42.5 79t13.5 89v278 q0 45 -13.5 89t-42.5 79v-614z" />
<glyph unicode="&#xdf;" horiz-adv-x="1275" d="M49 1047v59h72q6 92 44 169t100.5 134t144.5 89t172 32q88 0 165.5 -22.5t135 -68.5t91.5 -117t34 -165q0 -84 -29 -163t-78 -144q59 -82 114.5 -167t114.5 -163q35 -47 66 -94t31 -104q0 -78 -40 -138.5t-101.5 -101.5t-135 -61.5t-141.5 -20.5q-74 0 -138.5 21.5 t-111.5 62.5t-74.5 100.5t-27.5 137.5h59q0 -66 22.5 -114t62.5 -82t93.5 -50.5t114.5 -16.5q27 0 63.5 5.5t68.5 18.5t54.5 36.5t22.5 60.5q0 12 -17.5 43t-44 71t-57.5 83t-58.5 79t-46 59.5t-18.5 25.5l-207 288q88 82 143.5 204t55.5 243q0 88 -42 141t-134 53 q-37 0 -73 -11t-62.5 -33.5t-43 -54.5t-16.5 -71v-1368l-276 -163v1278h-72zM180 -127l56 33v1284q-1 62 22 123q-78 -102 -78 -234v-1206zM295 -59l43 24v1335q0 12 1 24t3 24q-23 -35 -35 -74t-12 -80v-1253zM647 821q72 -102 143.5 -200.5t143.5 -198.5q18 -29 44 -59.5 t47.5 -61.5t36.5 -62.5t15 -58.5q0 -10 -4 -30q26 16 49 47q2 6 2 16q0 27 -14 57.5t-35.5 61t-46 61.5t-43.5 58q-72 98 -140.5 195t-139.5 194q63 72 110 173t47 197q0 43 -11 84t-36 76q12 -49 12 -100q0 -57 -14 -118.5t-38.5 -121t-57.5 -113t-70 -96.5zM780 838 l172 -240q25 -35 54.5 -74t58.5 -78.5t55.5 -79.5t44.5 -75q2 8 2 24q0 55 -34.5 101.5t-63.5 87.5q-61 88 -121.5 175t-122.5 173q53 66 89 144.5t36 164.5q0 47 -11 89t-38 81q10 -29 14.5 -60.5t4.5 -62.5q0 -100 -38 -197.5t-102 -172.5z" />
<glyph unicode="&#xe0;" horiz-adv-x="1095" d="M49 451v202q0 96 37 179t100.5 143.5t147.5 94.5t180 34q94 0 178 -35t147.5 -95.5t99.5 -142t36 -178.5v-594h72v-59h-349v80q-45 -49 -98 -64.5t-117 -15.5q-41 0 -90 14.5t-84 32.5q-123 59 -191.5 162.5t-68.5 241.5zM111 451q-1 -130 75 -234q-23 61 -22 123v424 q0 59 22 121q-37 -49 -56 -109.5t-19 -122.5v-202zM223 336q0 -47 16.5 -90t45.5 -80q-10 37 -11 65v641q0 31 11 66q-29 -37 -45.5 -80t-16.5 -90v-432zM336 231q0 -37 14.5 -68.5t39 -54t57 -36t69.5 -13.5q74 0 128 48.5t54 123.5v641q0 76 -54 124t-128 48 q-35 0 -67.5 -13t-57 -36.5t-40 -54.5t-15.5 -68v-641zM344 1155v164l408 -100v-64h-408zM406 1214h114l-114 29v-29zM754 922q2 -12 3 -24.5t1 -25.5v-813h43v709q0 84 -47 154zM838 887q23 -61 22 -123v-705h55v594q0 131 -77 234z" />
<glyph unicode="&#xe1;" horiz-adv-x="1095" d="M49 451v202q0 96 37 179t100.5 143.5t147.5 94.5t180 34q94 0 178 -35t147.5 -95.5t99.5 -142t36 -178.5v-594h72v-59h-349v80q-45 -49 -98 -64.5t-117 -15.5q-41 0 -90 14.5t-84 32.5q-123 59 -191.5 162.5t-68.5 241.5zM111 451q-1 -130 75 -234q-23 61 -22 123v424 q0 59 22 121q-37 -49 -56 -109.5t-19 -122.5v-202zM223 336q0 -47 16.5 -90t45.5 -80q-10 37 -11 65v641q0 31 11 66q-29 -37 -45.5 -80t-16.5 -90v-432zM336 231q0 -37 14.5 -68.5t39 -54t57 -36t69.5 -13.5q74 0 128 48.5t54 123.5v641q0 76 -54 124t-128 48 q-35 0 -67.5 -13t-57 -36.5t-40 -54.5t-15.5 -68v-641zM344 1165v64l408 100v-164h-408zM576 1225h114v28zM754 922q2 -12 3 -24.5t1 -25.5v-813h43v709q0 84 -47 154zM838 887q23 -61 22 -123v-705h55v594q0 131 -77 234z" />
<glyph unicode="&#xe2;" horiz-adv-x="1095" d="M49 451v202q0 96 37 179t100.5 143.5t147.5 94.5t180 34q94 0 178 -35t147.5 -95.5t99.5 -142t36 -178.5v-594h72v-59h-349v80q-45 -49 -98 -64.5t-117 -15.5q-41 0 -90 14.5t-84 32.5q-123 59 -191.5 162.5t-68.5 241.5zM111 451q-1 -130 75 -234q-23 61 -22 123v424 q0 59 22 121q-37 -49 -56 -109.5t-19 -122.5v-202zM223 336q0 -47 16.5 -90t45.5 -80q-10 37 -11 65v641q0 31 11 66q-29 -37 -45.5 -80t-16.5 -90v-432zM295 1178l254 190l252 -190l-16 -54h-154l-82 62l-82 -62h-153zM336 231q0 -37 14.5 -68.5t39 -54t57 -36t69.5 -13.5 q74 0 128 48.5t54 123.5v641q0 76 -54 124t-128 48q-35 0 -67.5 -13t-57 -36.5t-40 -54.5t-15.5 -68v-641zM404 1184h45l100 76l100 -76h46l-146 110zM754 922q2 -12 3 -24.5t1 -25.5v-813h43v709q0 84 -47 154zM838 887q23 -61 22 -123v-705h55v594q0 131 -77 234z" />
<glyph unicode="&#xe3;" horiz-adv-x="1095" d="M49 451v202q0 96 37 179t100.5 143.5t147.5 94.5t180 34q94 0 178 -35t147.5 -95.5t99.5 -142t36 -178.5v-594h72v-59h-349v80q-45 -49 -98 -64.5t-117 -15.5q-41 0 -90 14.5t-84 32.5q-123 59 -191.5 162.5t-68.5 241.5zM111 451q-1 -130 75 -234q-23 61 -22 123v424 q0 59 22 121q-37 -49 -56 -109.5t-19 -122.5v-202zM223 336q0 -47 16.5 -90t45.5 -80q-10 37 -11 65v641q0 31 11 66q-29 -37 -45.5 -80t-16.5 -90v-432zM272 1208q0 39 15.5 71t41 53.5t58.5 32.5t69 11q20 0 57.5 -13t75 -29.5t71.5 -30t46 -13.5q16 0 32.5 15.5 t16.5 33.5q0 6 -4 15l56 20q16 -31 16 -71q0 -39 -15.5 -71t-41 -53.5t-58 -32.5t-69.5 -11q-20 0 -55 13t-73 29.5t-72 30t-50 13.5q-18 0 -33.5 -16.5t-15.5 -33.5q0 -6 4 -14l-55 -20q-16 37 -17 71zM336 231q0 -37 14.5 -68.5t39 -54t57 -36t69.5 -13.5q74 0 128 48.5 t54 123.5v641q0 76 -54 124t-128 48q-35 0 -67.5 -13t-57 -36.5t-40 -54.5t-15.5 -68v-641zM354 1272q18 6 37 6q29 0 62.5 -13.5t69.5 -28.5t69.5 -28.5t60.5 -13.5t50.5 12.5t39.5 32.5q-18 -6 -39 -6q-29 0 -61.5 13.5t-66.5 28.5t-67.5 28.5t-64.5 13.5q-57 0 -90 -45z M754 922q2 -12 3 -24.5t1 -25.5v-813h43v709q0 84 -47 154zM838 887q23 -61 22 -123v-705h55v594q0 131 -77 234z" />
<glyph unicode="&#xe4;" horiz-adv-x="1095" d="M49 451v202q0 96 37 179t100.5 143.5t147.5 94.5t180 34q94 0 178 -35t147.5 -95.5t99.5 -142t36 -178.5v-594h72v-59h-349v80q-45 -49 -98 -64.5t-117 -15.5q-41 0 -90 14.5t-84 32.5q-123 59 -191.5 162.5t-68.5 241.5zM111 451q-1 -130 75 -234q-23 61 -22 123v424 q0 59 22 121q-37 -49 -56 -109.5t-19 -122.5v-202zM223 336q0 -47 16.5 -90t45.5 -80q-10 37 -11 65v641q0 31 11 66q-29 -37 -45.5 -80t-16.5 -90v-432zM336 231q0 -37 14.5 -68.5t39 -54t57 -36t69.5 -13.5q74 0 128 48.5t54 123.5v641q0 76 -54 124t-128 48 q-35 0 -67.5 -13t-57 -36.5t-40 -54.5t-15.5 -68v-641zM344 1210q0 33 22.5 55.5t55.5 22.5t55.5 -22.5t22.5 -55.5t-22.5 -55.5t-55.5 -22.5t-55.5 22.5t-22.5 55.5zM404 1210q0 -8 4 -12q6 -6 14 -6t12 4q6 6 6 14t-4 12q-6 6 -14 7q-8 0 -12 -5q-6 -6 -6 -14zM526 1210 q0 33 22.5 55.5t55.5 22.5t55.5 -22.5t22.5 -55.5t-22.5 -55.5t-55.5 -22.5t-55.5 22.5t-22.5 55.5zM586 1210q0 -8 4 -12q6 -6 14 -6t13 4q6 6 6 14t-4 12q-6 6 -15 7q-8 0 -12 -5q-6 -6 -6 -14zM754 922q2 -12 3 -24.5t1 -25.5v-813h43v709q0 84 -47 154zM838 887 q23 -61 22 -123v-705h55v594q0 131 -77 234z" />
<glyph unicode="&#xe5;" horiz-adv-x="1095" d="M49 451v202q0 96 37 179t100.5 143.5t147.5 94.5t180 34q94 0 178 -35t147.5 -95.5t99.5 -142t36 -178.5v-594h72v-59h-349v80q-45 -49 -98 -64.5t-117 -15.5q-41 0 -90 14.5t-84 32.5q-123 59 -191.5 162.5t-68.5 241.5zM111 451q-1 -130 75 -234q-23 61 -22 123v424 q0 59 22 121q-37 -49 -56 -109.5t-19 -122.5v-202zM223 336q0 -47 16.5 -90t45.5 -80q-10 37 -11 65v641q0 31 11 66q-29 -37 -45.5 -80t-16.5 -90v-432zM332 1266q0 78 54.5 132.5t132.5 54.5t132 -54.5t54 -132.5t-54.5 -132t-131.5 -54q-78 0 -132.5 54t-54.5 132z M336 231q0 -37 14.5 -68.5t39 -54t57 -36t69.5 -13.5q74 0 128 48.5t54 123.5v641q0 76 -54 124t-128 48q-35 0 -67.5 -13t-57 -36.5t-40 -54.5t-15.5 -68v-641zM392 1266q0 -53 37.5 -89t89.5 -36q53 0 88.5 36t35.5 89t-35.5 90t-88.5 37t-90 -37t-37 -90zM428 1266 q0 37 27 63.5t64 26.5t63.5 -26.5t26.5 -63.5t-27 -63.5t-63 -26.5q-37 0 -64 26.5t-27 63.5zM488 1266q0 -12 9 -20.5t22 -8.5q28 0 28 29q0 12 -8 21.5t-20 9.5t-21.5 -9.5t-9.5 -21.5zM754 922q2 -12 3 -24.5t1 -25.5v-813h43v709q0 84 -47 154zM838 887q23 -61 22 -123 v-705h55v594q0 131 -77 234z" />
<glyph unicode="&#xe6;" horiz-adv-x="1667" d="M49 449v204q0 98 37 180t101.5 142.5t148.5 94.5t180 34q86 0 171 -32t147 -93q72 66 153.5 95.5t177.5 29.5q92 0 175 -36t144.5 -97.5t97.5 -143.5t36 -174v-118h-641v-476h180q59 0 117.5 17.5t109 50.5t89 79t59.5 103l57 -20q-53 -135 -169.5 -212t-262.5 -77h-184 q-74 0 -146.5 -1t-146.5 -1h-93t-93 2q-92 2 -174 38t-141.5 95.5t-94.5 140t-35 175.5zM109 449q0 -61 19 -119t54 -109q-8 29 -14 58.5t-6 60.5v424q0 29 5 57.5t15 57.5q-74 -102 -73 -226v-204zM221 336q0 -47 17.5 -92t46.5 -80q-6 18 -10.5 37.5t-4.5 40.5v620 q0 20 4.5 40t10.5 38q-29 -35 -46.5 -80t-17.5 -92v-432zM332 242q0 -53 20.5 -89t54 -57.5t77.5 -31t89 -9.5q31 0 61 2t60 2v803q0 35 -13 68t-36.5 57.5t-55.5 39.5t-69 15q-78 0 -133 -49t-55 -131v-620zM717 991q37 -59 37 -129v-803h49v867q-20 20 -42 35.5t-44 29.5z M862 59h53v803q0 35 9 68.5t32 62.5q-27 -14 -50 -30.5t-44 -38.5v-865zM977 594h362v268q0 78 -53 130t-131 52q-37 0 -69.5 -15t-56 -39.5t-38 -57.5t-14.5 -70v-268zM1391 928q8 -27 8 -66v-268h45v174q0 90 -53 160zM1481 885q16 -41 20 -84t4 -86q0 -31 -1 -61.5 t-1 -59.5h56v59q0 131 -78 232z" />
<glyph unicode="&#xe7;" horiz-adv-x="907" d="M49 451v202q0 92 35 174t96.5 143.5t142 97.5t173.5 36q94 0 171.5 -35t131.5 -113v117h59v-309h-59q0 59 -22.5 110.5t-61.5 89t-91.5 59t-109.5 21.5q-35 0 -67.5 -13t-57 -36.5t-40 -54.5t-15.5 -68v-641q0 -37 15.5 -68.5t41 -55t58 -36t69.5 -12.5q33 0 74 11.5 t79 32t71.5 45t52.5 53.5l49 -35q-27 -37 -65 -66.5t-83 -52t-92 -35t-92 -12.5q-96 0 -180 34t-146.5 94t-99.5 143t-37 180zM109 451q0 -63 19 -124t58 -110q-23 61 -22 123v424q0 59 22 121q-78 -100 -77 -232v-202zM223 336q1 -96 62 -170q-6 16 -8.5 32.5t-2.5 32.5 v646q0 16 2.5 31.5t8.5 29.5q-61 -74 -62 -170v-432zM274 -397l25 59h88q31 0 63.5 4t58 17.5t43 40t17.5 69.5q0 37 -13.5 61.5t-36 39t-52 19.5t-60.5 5q12 33 25.5 63.5t28.5 61.5l53 -23l-21 -51q61 -16 99.5 -65.5t38.5 -112.5q0 -76 -54 -129q-39 -39 -88 -49 t-102 -10h-113zM315 -301l25 59h59q20 0 47 6.5t27 28.5q0 18 -14.5 24.5t-34.5 6.5h-58l25 57h55q37 0 62.5 -26.5t25.5 -63.5q0 -47 -40 -69.5t-95 -22.5h-84z" />
<glyph unicode="&#xe8;" horiz-adv-x="1021" d="M49 449v204q0 92 36 174t97.5 143.5t143.5 97.5t174 36q98 0 184 -33t150.5 -92t101.5 -142t37 -184v-118h-641v-293q0 -94 64.5 -139.5t150.5 -45.5q53 0 106.5 21.5t99.5 56.5t81.5 80t54.5 94l55 -20q-25 -66 -66.5 -118t-97 -91t-120 -59.5t-132.5 -20.5 q-98 0 -186 31.5t-152.5 90t-102.5 141.5t-38 186zM109 449q0 -63 19 -124t58 -112q-23 63 -22 127v424q0 66 20 121q-37 -49 -56 -109.5t-19 -122.5v-204zM223 336q0 -47 16.5 -92t45.5 -80q-12 33 -13 74v628q0 39 13 74q-29 -35 -45.5 -80t-16.5 -92v-432zM307 1155v164 l408 -100v-64h-408zM332 594h362v268q0 82 -56 132t-134 50q-37 0 -67.5 -15t-54.5 -41.5t-37 -59.5t-13 -66v-268zM369 1214h114l-114 29v-29zM745 928q10 -35 11 -66v-268h43v174q0 90 -54 160zM836 885q16 -41 20 -84t4 -86q0 -31 -1 -61.5t-1 -59.5h55v59q0 131 -77 232 z" />
<glyph unicode="&#xe9;" horiz-adv-x="1021" d="M49 449v204q0 92 36 174t97.5 143.5t143.5 97.5t174 36q98 0 184 -33t150.5 -92t101.5 -142t37 -184v-118h-641v-293q0 -94 64.5 -139.5t150.5 -45.5q53 0 106.5 21.5t99.5 56.5t81.5 80t54.5 94l55 -20q-25 -66 -66.5 -118t-97 -91t-120 -59.5t-132.5 -20.5 q-98 0 -186 31.5t-152.5 90t-102.5 141.5t-38 186zM109 449q0 -63 19 -124t58 -112q-23 63 -22 127v424q0 66 20 121q-37 -49 -56 -109.5t-19 -122.5v-204zM223 336q0 -47 16.5 -92t45.5 -80q-12 33 -13 74v628q0 39 13 74q-29 -35 -45.5 -80t-16.5 -92v-432zM307 1165v64 l408 100v-164h-408zM332 594h362v268q0 82 -56 132t-134 50q-37 0 -67.5 -15t-54.5 -41.5t-37 -59.5t-13 -66v-268zM539 1225h114v28zM745 928q10 -35 11 -66v-268h43v174q0 90 -54 160zM836 885q16 -41 20 -84t4 -86q0 -31 -1 -61.5t-1 -59.5h55v59q0 131 -77 232z" />
<glyph unicode="&#xea;" horiz-adv-x="1021" d="M49 449v204q0 92 36 174t97.5 143.5t143.5 97.5t174 36q98 0 184 -33t150.5 -92t101.5 -142t37 -184v-118h-641v-293q0 -94 64.5 -139.5t150.5 -45.5q53 0 106.5 21.5t99.5 56.5t81.5 80t54.5 94l55 -20q-25 -66 -66.5 -118t-97 -91t-120 -59.5t-132.5 -20.5 q-98 0 -186 31.5t-152.5 90t-102.5 141.5t-38 186zM109 449q0 -63 19 -124t58 -112q-23 63 -22 127v424q0 66 20 121q-37 -49 -56 -109.5t-19 -122.5v-204zM223 336q0 -47 16.5 -92t45.5 -80q-12 33 -13 74v628q0 39 13 74q-29 -35 -45.5 -80t-16.5 -92v-432zM258 1178 l254 190l252 -190l-16 -54h-154l-82 62l-82 -62h-153zM332 594h362v268q0 82 -56 132t-134 50q-37 0 -67.5 -15t-54.5 -41.5t-37 -59.5t-13 -66v-268zM367 1184h45l100 76l100 -76h46l-146 110zM745 928q10 -35 11 -66v-268h43v174q0 90 -54 160zM836 885q16 -41 20 -84 t4 -86q0 -31 -1 -61.5t-1 -59.5h55v59q0 131 -77 232z" />
<glyph unicode="&#xeb;" horiz-adv-x="1021" d="M49 449v204q0 92 36 174t97.5 143.5t143.5 97.5t174 36q98 0 184 -33t150.5 -92t101.5 -142t37 -184v-118h-641v-293q0 -94 64.5 -139.5t150.5 -45.5q53 0 106.5 21.5t99.5 56.5t81.5 80t54.5 94l55 -20q-25 -66 -66.5 -118t-97 -91t-120 -59.5t-132.5 -20.5 q-98 0 -186 31.5t-152.5 90t-102.5 141.5t-38 186zM109 449q0 -63 19 -124t58 -112q-23 63 -22 127v424q0 66 20 121q-37 -49 -56 -109.5t-19 -122.5v-204zM223 336q0 -47 16.5 -92t45.5 -80q-12 33 -13 74v628q0 39 13 74q-29 -35 -45.5 -80t-16.5 -92v-432zM332 594h362 v268q0 82 -56 132t-134 50q-37 0 -67.5 -15t-54.5 -41.5t-37 -59.5t-13 -66v-268zM342 1198q0 33 22.5 55.5t55.5 22.5t55.5 -22.5t22.5 -55.5t-22.5 -55.5t-55.5 -22.5t-55.5 22.5t-22.5 55.5zM402 1198q0 -8 4 -12q6 -6 14 -6t12 4q6 6 6 14t-4 12q-6 6 -14 7q-8 0 -12 -5 q-6 -6 -6 -14zM524 1198q0 33 22.5 55.5t55.5 22.5t55.5 -22.5t22.5 -55.5t-22.5 -55.5t-55.5 -22.5t-55.5 22.5t-22.5 55.5zM584 1198q0 -8 4 -12q6 -6 14 -6t13 4q6 6 6 14t-4 12q-6 6 -15 7q-8 0 -12 -5q-6 -6 -6 -14zM745 928q10 -35 11 -66v-268h43v174q0 90 -54 160z M836 885q16 -41 20 -84t4 -86q0 -31 -1 -61.5t-1 -59.5h55v59q0 131 -77 232z" />
<glyph unicode="&#xec;" horiz-adv-x="505" d="M49 1044v60h348v-1045h60v-59h-387v59h51v985h-72zM49 1155v164l408 -100v-64h-408zM111 1214h114l-114 29v-29zM180 59h49v985h-49v-985zM289 59h49v985h-49v-985z" />
<glyph unicode="&#xed;" horiz-adv-x="505" d="M49 1044v60h348v-1045h60v-59h-387v59h51v985h-72zM49 1165v64l408 100v-164h-408zM180 59h49v985h-49v-985zM281 1225h114v28zM289 59h49v985h-49v-985z" />
<glyph unicode="&#xee;" horiz-adv-x="505" d="M2 1178l254 190l252 -190l-16 -54h-154l-82 62l-82 -62h-153zM49 1044v60h348v-1045h60v-59h-387v59h51v985h-72zM111 1184h45l100 76l100 -76h46l-146 110zM180 59h49v985h-49v-985zM289 59h49v985h-49v-985z" />
<glyph unicode="&#xef;" horiz-adv-x="505" d="M49 1044v60h348v-1045h60v-59h-387v59h51v985h-72zM84 1198q0 33 22.5 55.5t55.5 22.5t55.5 -22.5t22.5 -55.5t-22.5 -55.5t-55.5 -22.5t-55.5 22.5t-22.5 55.5zM144 1198q0 -8 4 -12q6 -6 14 -6t12 4q6 6 6 14t-4 12q-6 6 -14 7q-8 0 -12 -5q-6 -6 -6 -14zM180 59h49 v985h-49v-985zM266 1198q0 33 22.5 55.5t55.5 22.5t55.5 -22.5t22.5 -55.5t-22.5 -55.5t-55.5 -22.5t-55.5 22.5t-22.5 55.5zM289 59h49v985h-49v-985zM326 1198q0 -8 4 -12q6 -6 14 -6t13 4q6 6 6 14t-4 12q-6 6 -15 7q-8 0 -12 -5q-6 -6 -6 -14z" />
<glyph unicode="&#xf0;" horiz-adv-x="1046" d="M49 451v202q0 92 36 174t97.5 143.5t144.5 97.5t175 36q18 0 48 -5t59.5 -16.5t54 -26t34.5 -32.5v270l-180 -96l-29 51l199 107q-51 115 -176 114v60q82 0 160 -26.5t141 -80.5l156 84l28 -53l-139 -74q117 -129 117 -303v-626q0 -96 -37 -178.5t-100.5 -142.5 t-147.5 -95t-178 -35t-178 35t-147.5 95t-100.5 142t-37 179zM109 451q-1 -132 77 -232q-23 61 -22 121v424q0 61 22 123q-78 -102 -77 -234v-202zM223 336q1 -96 62 -170q-10 35 -11 65v641q0 31 11 66q-61 -74 -62 -170v-432zM334 231q0 -41 16.5 -72.5t43 -54t61 -34 t71.5 -11.5q33 0 65 14.5t55.5 39t37.5 55.5t14 63v641q0 82 -58 127t-134 45q-35 0 -65.5 -14t-54.5 -38.5t-38 -55.5t-14 -64v-641zM752 182q23 35 36 74t13 80v858q0 35 -10.5 69.5t-26.5 65.5l-8 -4q0 -4 1 -6t1 -6v-1086q0 -25 -6 -45zM838 217q78 102 77 234l-2 626 q0 63 -18 124t-57 110q23 -61 22 -121v-850q0 -61 -22 -123z" />
<glyph unicode="&#xf1;" horiz-adv-x="1138" d="M49 0v59h53v594q0 96 37 179t100.5 143.5t147.5 94.5t180 34q94 0 178 -35t147.5 -95.5t99.5 -142t36 -178.5v-594h62v-59h-424v59h84v803q0 82 -56.5 132t-134.5 50q-37 0 -67.5 -15t-54 -41.5t-37 -59.5t-13.5 -66v-803h88v-59h-426zM164 59h53v705q0 60 23 121 q-37 -49 -56.5 -109.5t-19.5 -122.5v-594zM279 59h49v803q0 41 12 78q-29 -35 -45 -80t-16 -92v-709zM293 1208q0 39 15.5 71t41 53.5t58.5 32.5t69 11q20 0 57.5 -13t75 -29.5t71.5 -30t46 -13.5q16 0 32.5 15.5t16.5 33.5q0 6 -4 15l56 20q16 -31 16 -71q0 -39 -15.5 -71 t-41 -53.5t-58 -32.5t-69.5 -11q-20 0 -55 13t-73 29.5t-72 30t-50 13.5q-18 0 -33.5 -16.5t-15.5 -33.5q0 -6 4 -14l-55 -20q-16 37 -17 71zM375 1272q18 6 37 6q29 0 62.5 -13.5t69.5 -28.5t69.5 -28.5t60.5 -13.5t50.5 12.5t39.5 32.5q-18 -6 -39 -6q-29 0 -61.5 13.5 t-66.5 28.5t-67.5 28.5t-64.5 13.5q-57 0 -90 -45zM801 928q8 -27 8 -66v-803h45v709q0 90 -53 160zM891 885q23 -61 22 -121v-705h56v594q0 131 -78 232z" />
<glyph unicode="&#xf2;" horiz-adv-x="1021" d="M49 436v230q0 92 36 173t97.5 139t143.5 92t174 34q98 0 184 -31t150.5 -88t101.5 -138t37 -181v-230q0 -94 -36 -176t-97.5 -142.5t-143.5 -95t-174 -34.5q-98 0 -184 32.5t-150.5 91t-101.5 141.5t-37 183zM109 436q0 -63 19 -123.5t58 -111.5q-23 63 -22 127v436 q0 66 20 121q-76 -100 -75 -219v-230zM223 324q0 -47 16.5 -92t45.5 -80q-12 33 -13 73v641q0 39 13 74q-29 -35 -45.5 -80t-16.5 -92v-444zM307 1155v164l408 -100v-64h-408zM332 229q0 -37 14 -69.5t39 -58t57.5 -40t69.5 -14.5q78 0 130 52.5t52 129.5v633q0 82 -56 132 t-134 50q-37 0 -67.5 -15t-54.5 -41.5t-37 -59.5t-13 -66v-633zM369 1214h114l-114 29v-29zM745 164q25 35 39.5 76t14.5 84v444q0 90 -54 160q10 -35 11 -66v-633q0 -31 -11 -65zM834 201q41 49 60 110.5t19 124.5v230q0 63 -19.5 116.5t-57.5 102.5q23 -61 22 -121v-436 q0 -70 -24 -127z" />
<glyph unicode="&#xf3;" horiz-adv-x="1021" d="M49 436v230q0 92 36 173t97.5 139t143.5 92t174 34q98 0 184 -31t150.5 -88t101.5 -138t37 -181v-230q0 -94 -36 -176t-97.5 -142.5t-143.5 -95t-174 -34.5q-98 0 -184 32.5t-150.5 91t-101.5 141.5t-37 183zM109 436q0 -63 19 -123.5t58 -111.5q-23 63 -22 127v436 q0 66 20 121q-76 -100 -75 -219v-230zM223 324q0 -47 16.5 -92t45.5 -80q-12 33 -13 73v641q0 39 13 74q-29 -35 -45.5 -80t-16.5 -92v-444zM307 1165v64l408 100v-164h-408zM332 229q0 -37 14 -69.5t39 -58t57.5 -40t69.5 -14.5q78 0 130 52.5t52 129.5v633q0 82 -56 132 t-134 50q-37 0 -67.5 -15t-54.5 -41.5t-37 -59.5t-13 -66v-633zM539 1225h114v28zM745 164q25 35 39.5 76t14.5 84v444q0 90 -54 160q10 -35 11 -66v-633q0 -31 -11 -65zM834 201q41 49 60 110.5t19 124.5v230q0 63 -19.5 116.5t-57.5 102.5q23 -61 22 -121v-436 q0 -70 -24 -127z" />
<glyph unicode="&#xf4;" horiz-adv-x="1021" d="M49 436v230q0 92 36 173t97.5 139t143.5 92t174 34q98 0 184 -31t150.5 -88t101.5 -138t37 -181v-230q0 -94 -36 -176t-97.5 -142.5t-143.5 -95t-174 -34.5q-98 0 -184 32.5t-150.5 91t-101.5 141.5t-37 183zM109 436q0 -63 19 -123.5t58 -111.5q-23 63 -22 127v436 q0 66 20 121q-76 -100 -75 -219v-230zM223 324q0 -47 16.5 -92t45.5 -80q-12 33 -13 73v641q0 39 13 74q-29 -35 -45.5 -80t-16.5 -92v-444zM258 1178l254 190l252 -190l-16 -54h-154l-82 62l-82 -62h-153zM332 229q0 -37 14 -69.5t39 -58t57.5 -40t69.5 -14.5 q78 0 130 52.5t52 129.5v633q0 82 -56 132t-134 50q-37 0 -67.5 -15t-54.5 -41.5t-37 -59.5t-13 -66v-633zM367 1184h45l100 76l100 -76h46l-146 110zM745 164q25 35 39.5 76t14.5 84v444q0 90 -54 160q10 -35 11 -66v-633q0 -31 -11 -65zM834 201q41 49 60 110.5t19 124.5 v230q0 63 -19.5 116.5t-57.5 102.5q23 -61 22 -121v-436q0 -70 -24 -127z" />
<glyph unicode="&#xf5;" horiz-adv-x="1021" d="M49 436v230q0 92 36 173t97.5 139t143.5 92t174 34q98 0 184 -31t150.5 -88t101.5 -138t37 -181v-230q0 -94 -36 -176t-97.5 -142.5t-143.5 -95t-174 -34.5q-98 0 -184 32.5t-150.5 91t-101.5 141.5t-37 183zM109 436q0 -63 19 -123.5t58 -111.5q-23 63 -22 127v436 q0 66 20 121q-76 -100 -75 -219v-230zM223 324q0 -47 16.5 -92t45.5 -80q-12 33 -13 73v641q0 39 13 74q-29 -35 -45.5 -80t-16.5 -92v-444zM235 1208q0 39 15.5 71t41 53.5t58.5 32.5t69 11q20 0 57.5 -13t75 -29.5t71.5 -30t46 -13.5q16 0 32.5 15.5t16.5 33.5q0 6 -4 15 l56 20q16 -31 16 -71q0 -39 -15.5 -71t-41 -53.5t-58 -32.5t-69.5 -11q-20 0 -55 13t-73 29.5t-72 30t-50 13.5q-18 0 -33.5 -16.5t-15.5 -33.5q0 -6 4 -14l-55 -20q-16 37 -17 71zM317 1272q18 6 37 6q29 0 62.5 -13.5t69.5 -28.5t69.5 -28.5t60.5 -13.5t50.5 12.5 t39.5 32.5q-18 -6 -39 -6q-29 0 -61.5 13.5t-66.5 28.5t-67.5 28.5t-64.5 13.5q-57 0 -90 -45zM332 229q0 -37 14 -69.5t39 -58t57.5 -40t69.5 -14.5q78 0 130 52.5t52 129.5v633q0 82 -56 132t-134 50q-37 0 -67.5 -15t-54.5 -41.5t-37 -59.5t-13 -66v-633zM745 164 q25 35 39.5 76t14.5 84v444q0 90 -54 160q10 -35 11 -66v-633q0 -31 -11 -65zM834 201q41 49 60 110.5t19 124.5v230q0 63 -19.5 116.5t-57.5 102.5q23 -61 22 -121v-436q0 -70 -24 -127z" />
<glyph unicode="&#xf6;" horiz-adv-x="1021" d="M49 436v230q0 92 36 173t97.5 139t143.5 92t174 34q98 0 184 -31t150.5 -88t101.5 -138t37 -181v-230q0 -94 -36 -176t-97.5 -142.5t-143.5 -95t-174 -34.5q-98 0 -184 32.5t-150.5 91t-101.5 141.5t-37 183zM109 436q0 -63 19 -123.5t58 -111.5q-23 63 -22 127v436 q0 66 20 121q-76 -100 -75 -219v-230zM223 324q0 -47 16.5 -92t45.5 -80q-12 33 -13 73v641q0 39 13 74q-29 -35 -45.5 -80t-16.5 -92v-444zM332 229q0 -37 14 -69.5t39 -58t57.5 -40t69.5 -14.5q78 0 130 52.5t52 129.5v633q0 82 -56 132t-134 50q-37 0 -67.5 -15 t-54.5 -41.5t-37 -59.5t-13 -66v-633zM342 1198q0 33 22.5 55.5t55.5 22.5t55.5 -22.5t22.5 -55.5t-22.5 -55.5t-55.5 -22.5t-55.5 22.5t-22.5 55.5zM402 1198q0 -8 4 -12q6 -6 14 -6t12 4q6 6 6 14t-4 12q-6 6 -14 7q-8 0 -12 -5q-6 -6 -6 -14zM524 1198q0 33 22.5 55.5 t55.5 22.5t55.5 -22.5t22.5 -55.5t-22.5 -55.5t-55.5 -22.5t-55.5 22.5t-22.5 55.5zM584 1198q0 -8 4 -12q6 -6 14 -6t13 4q6 6 6 14t-4 12q-6 6 -15 7q-8 0 -12 -5q-6 -6 -6 -14zM745 164q25 35 39.5 76t14.5 84v444q0 90 -54 160q10 -35 11 -66v-633q0 -31 -11 -65z M834 201q41 49 60 110.5t19 124.5v230q0 63 -19.5 116.5t-57.5 102.5q23 -61 22 -121v-436q0 -70 -24 -127z" />
<glyph unicode="&#xf7;" horiz-adv-x="778" d="M49 592v276h225q-25 33 -24 82q0 59 41 98t98 39q59 0 98 -38.5t39 -98.5q0 -45 -26 -82h229v-276h-231q29 -39 28 -86q0 -59 -38.5 -98t-98.5 -39q-57 0 -98 38.5t-41 98.5q0 49 31 86h-232zM109 651h561v49h-561v-49zM109 760h561v49h-561v-49zM309 506 q0 -25 13.5 -44.5t35.5 -29.5v146q-23 -10 -36 -30t-13 -42zM309 950q0 -25 13.5 -44t35.5 -29v145q-23 -10 -36 -29.5t-13 -42.5zM418 432q23 10 36 29.5t13 44.5t-13.5 44t-35.5 28v-146zM418 877q23 10 36 29t13 44t-13.5 44.5t-35.5 27.5v-145z" />
<glyph unicode="&#xf8;" horiz-adv-x="1021" d="M49 449v204q0 92 36 174t97.5 143.5t143.5 97.5t174 36q72 0 134 -15.5t122 -52.5l84 148l53 -31l-88 -152q39 -25 70.5 -64.5t53 -87.5t33 -99.5t11.5 -96.5v-204q0 -96 -36 -178.5t-98.5 -141.5t-145.5 -94t-177 -35q-66 0 -129 14.5t-121 48.5l-84 -145l-53 29l88 151 q-41 41 -71.5 78t-52 77t-33 87t-11.5 109zM109 449q0 -63 19 -124t58 -112q-23 63 -22 127v424q0 66 20 121q-37 -49 -56 -109.5t-19 -122.5v-204zM223 336q0 -41 12.5 -78t32.5 -72l8 15q-4 12 -4 20v641q1 41 13 78q-29 -35 -45.5 -80t-16.5 -92v-432zM332 299l354 616 q-16 63 -68.5 96t-113.5 33q-37 0 -67.5 -15t-54.5 -41.5t-37 -59.5t-13 -66v-563zM338 193q23 -57 67 -95.5t107 -38.5q78 0 130 52.5t52 130.5v569zM745 176q25 35 39.5 76t14.5 84v432q0 39 -11.5 76t-31.5 71l-4 -8q2 -10 3 -20t1 -21v-628q0 -16 -3 -30.5t-8 -31.5z M834 213q41 49 60 110.5t19 125.5v204q0 131 -77 232q23 -61 22 -121v-424q0 -70 -24 -127z" />
<glyph unicode="&#xf9;" horiz-adv-x="1138" d="M49 1044v60h426v-60h-88v-802q0 -76 52.5 -129.5t127.5 -53.5q78 0 130.5 52.5t52.5 130.5v802h-84v60h424v-60h-62v-593q0 -137 -74.5 -249t-201.5 -165q-41 -16 -85 -26.5t-89 -10.5q-96 0 -183.5 33t-152 93t-102.5 143t-38 182v593h-53zM164 451q0 -130 76 -234 q-23 61 -23 123v704h-53v-593zM279 336q0 -47 16 -92t45 -80q-12 37 -12 78v802h-49v-708zM364 1155v164l408 -100v-64h-408zM426 1214h114l-114 29v-29zM801 174q25 35 39 77t14 85v708h-45v-802q0 -37 -8 -68zM891 217q78 102 78 234v593h-56v-704q0 -61 -22 -123z" />
<glyph unicode="&#xfa;" horiz-adv-x="1138" d="M49 1044v60h426v-60h-88v-802q0 -76 52.5 -129.5t127.5 -53.5q78 0 130.5 52.5t52.5 130.5v802h-84v60h424v-60h-62v-593q0 -137 -74.5 -249t-201.5 -165q-41 -16 -85 -26.5t-89 -10.5q-96 0 -183.5 33t-152 93t-102.5 143t-38 182v593h-53zM164 451q0 -130 76 -234 q-23 61 -23 123v704h-53v-593zM279 336q0 -47 16 -92t45 -80q-12 37 -12 78v802h-49v-708zM364 1165v64l408 100v-164h-408zM596 1225h114v28zM801 174q25 35 39 77t14 85v708h-45v-802q0 -37 -8 -68zM891 217q78 102 78 234v593h-56v-704q0 -61 -22 -123z" />
<glyph unicode="&#xfb;" horiz-adv-x="1138" d="M49 1044v60h426v-60h-88v-802q0 -76 52.5 -129.5t127.5 -53.5q78 0 130.5 52.5t52.5 130.5v802h-84v60h424v-60h-62v-593q0 -137 -74.5 -249t-201.5 -165q-41 -16 -85 -26.5t-89 -10.5q-96 0 -183.5 33t-152 93t-102.5 143t-38 182v593h-53zM164 451q0 -130 76 -234 q-23 61 -23 123v704h-53v-593zM279 336q0 -47 16 -92t45 -80q-12 37 -12 78v802h-49v-708zM315 1178l254 190l252 -190l-16 -54h-154l-82 62l-82 -62h-153zM424 1184h45l100 76l100 -76h46l-146 110zM801 174q25 35 39 77t14 85v708h-45v-802q0 -37 -8 -68zM891 217 q78 102 78 234v593h-56v-704q0 -61 -22 -123z" />
<glyph unicode="&#xfc;" horiz-adv-x="1138" d="M49 1044v60h426v-60h-88v-802q0 -76 52.5 -129.5t127.5 -53.5q78 0 130.5 52.5t52.5 130.5v802h-84v60h424v-60h-62v-593q0 -137 -74.5 -249t-201.5 -165q-41 -16 -85 -26.5t-89 -10.5q-96 0 -183.5 33t-152 93t-102.5 143t-38 182v593h-53zM164 451q0 -130 76 -234 q-23 61 -23 123v704h-53v-593zM279 336q0 -47 16 -92t45 -80q-12 37 -12 78v802h-49v-708zM399 1198q0 33 22.5 55.5t55.5 22.5t55.5 -22.5t22.5 -55.5t-22.5 -55.5t-55.5 -22.5t-55.5 22.5t-22.5 55.5zM459 1198q0 -8 4 -12q6 -6 14 -6t12 4q6 6 6 14t-4 12q-6 6 -14 7 q-8 0 -12 -5q-6 -6 -6 -14zM581 1198q0 33 22.5 55.5t55.5 22.5t55.5 -22.5t22.5 -55.5t-22.5 -55.5t-55.5 -22.5t-55.5 22.5t-22.5 55.5zM641 1198q0 -8 4 -12q6 -6 14 -6t13 4q6 6 6 14t-4 12q-6 6 -15 7q-8 0 -12 -5q-6 -6 -6 -14zM801 174q25 35 39 77t14 85v708h-45 v-802q0 -37 -8 -68zM891 217q78 102 78 234v593h-56v-704q0 -61 -22 -123z" />
<glyph unicode="&#xfd;" horiz-adv-x="1085" d="M49 1044v60h344v-862q0 -78 52.5 -130.5t129.5 -52.5q78 0 130.5 52.5t52.5 130.5v802h-150v60h428v-1014q0 -106 -41 -190t-110.5 -141.5t-160.5 -87t-192 -29.5q-70 0 -128 17t-101 50t-67.5 80t-24.5 109q0 55 37 88.5t92 33.5t89 -32.5t34 -87.5q0 -45 -35 -86 t-82 -41h-13t-14 4q18 -20 43 -34.5t53.5 -24t58.5 -14.5t54 -5q45 0 86 10t73 32.5t51.5 58.5t19.5 85v197q-39 -45 -89.5 -63.5t-109.5 -18.5q-92 0 -174 36t-143.5 96.5t-96 142t-34.5 174.5v595h-62zM170 449q0 -63 19.5 -124t58.5 -110q-23 63 -23 125v704h-55v-595z M274 -102q1 -62 64 -66q63 4 63 68q0 63 -63 63q-29 0 -46.5 -18.5t-17.5 -46.5zM285 336q0 -47 17 -92t46 -80q-14 35 -14 78v802h-49v-708zM389 1165v64l408 100v-164h-408zM621 1225h114v28zM807 -182q29 35 41 77t12 87v1062h-43v-1161q0 -16 -2 -33.5t-8 -31.5z M897 -143q78 102 78 233v954h-53v-1062q0 -33 -7.5 -64t-17.5 -61z" />
<glyph unicode="&#xfe;" horiz-adv-x="1118" d="M49 -301h94v1771h-94v60h371v-463q47 20 96 28.5t100 8.5q92 0 175 -36t144.5 -97.5t97.5 -143.5t36 -174v-202q0 -94 -36 -176t-97.5 -143.5t-144 -96.5t-177.5 -35q-47 0 -98 16.5t-84 51.5q-4 4 -6 7t-6 5v-440h-371v59zM205 -301h53v1771h-53v-1771zM319 -301h41 v1771h-41v-1771zM420 231q0 -37 15.5 -68.5t41 -54t58 -36t67.5 -13.5q74 0 128 48.5t54 123.5v641q0 37 -15 68t-39.5 54.5t-57.5 36.5t-68 13q-74 0 -129 -48t-55 -124v-641zM834 166q61 74 61 170v432q0 96 -61 170q10 -35 10 -66v-641q0 -31 -10 -65zM932 217 q78 102 78 234v202q0 131 -78 232q23 -61 22 -121v-424q0 -61 -22 -123z" />
<glyph unicode="&#xff;" horiz-adv-x="1085" d="M49 1044v60h344v-862q0 -78 52.5 -130.5t129.5 -52.5q78 0 130.5 52.5t52.5 130.5v802h-150v60h428v-1014q0 -106 -41 -190t-110.5 -141.5t-160.5 -87t-192 -29.5q-70 0 -128 17t-101 50t-67.5 80t-24.5 109q0 55 37 88.5t92 33.5t89 -32.5t34 -87.5q0 -45 -35 -86 t-82 -41h-13t-14 4q18 -20 43 -34.5t53.5 -24t58.5 -14.5t54 -5q45 0 86 10t73 32.5t51.5 58.5t19.5 85v197q-39 -45 -89.5 -63.5t-109.5 -18.5q-92 0 -174 36t-143.5 96.5t-96 142t-34.5 174.5v595h-62zM170 449q0 -63 19.5 -124t58.5 -110q-23 63 -23 125v704h-55v-595z M274 -102q1 -62 64 -66q63 4 63 68q0 63 -63 63q-29 0 -46.5 -18.5t-17.5 -46.5zM285 336q0 -47 17 -92t46 -80q-14 35 -14 78v802h-49v-708zM389 1216q0 33 22.5 55.5t55.5 22.5t55.5 -22.5t22.5 -55.5t-22.5 -55.5t-55.5 -22.5t-55.5 22.5t-22.5 55.5zM449 1216 q0 -8 4 -12q6 -6 14 -6t12 4q6 6 6 14t-4 12q-6 6 -14 7q-8 0 -12 -5q-6 -6 -6 -14zM571 1216q0 33 22.5 55.5t55.5 22.5t55.5 -22.5t22.5 -55.5t-22.5 -55.5t-55.5 -22.5t-55.5 22.5t-22.5 55.5zM631 1216q0 -8 4 -12q6 -6 14 -6t13 4q6 6 6 14t-4 12q-6 6 -15 7 q-8 0 -12 -5q-6 -6 -6 -14zM807 -182q29 35 41 77t12 87v1062h-43v-1161q0 -16 -2 -33.5t-8 -31.5zM897 -143q78 102 78 233v954h-53v-1062q0 -33 -7.5 -64t-17.5 -61z" />
<glyph unicode="&#x152;" horiz-adv-x="1441" d="M49 434v656q0 90 34 169.5t92 139t138 93.5t170 34h910v-256h-60v196h-375v-845h224v88h59v-234h-59v86h-224v-502h375v197h60v-256h-910q-90 0 -168.5 34t-138 93t-93.5 138t-34 169zM109 434q0 -47 12 -92t33 -86v1014q-45 -86 -45 -180v-656zM215 172q20 -20 43.5 -37 t48.5 -31q-41 57 -41 129v1059q0 72 41 129q-27 -14 -49 -31.5t-43 -37.5v-1180zM326 238q0 -76 51 -127.5t127 -51.5q37 0 68.5 14.5t56 39t39 56.5t14.5 69v1050q0 37 -14.5 69t-39 56.5t-56 37.5t-68.5 13q-74 0 -126 -50t-52 -126v-1050zM662 59h20v21zM662 1466l20 -22 v22h-20zM741 59h50v1407h-50v-1407zM850 59h49v1407h-49v-1407z" />
<glyph unicode="&#x153;" horiz-adv-x="1667" d="M49 449v204q0 92 36 174t97.5 143.5t143.5 97.5t174 36t180 -30t154 -95q72 66 153.5 95.5t177.5 29.5q92 0 175 -36t144.5 -97.5t97.5 -143.5t36 -174v-118h-641v-293q0 -86 58.5 -135.5t140.5 -49.5q57 0 112 19.5t103.5 53.5t85 80t55.5 99l57 -20 q-55 -139 -170.5 -214t-263.5 -75q-92 0 -174 29.5t-150 93.5q-68 -63 -149.5 -93t-173.5 -30q-94 0 -178 34t-146.5 94t-98.5 142t-36 179zM109 449q0 -63 19 -124t60 -112q-25 61 -24 127v424q0 59 22 121q-78 -100 -77 -232v-204zM223 336q0 -47 17.5 -92t46.5 -80 q-12 33 -13 74v628q0 39 13 74q-29 -35 -46.5 -80t-17.5 -92v-432zM334 242q0 -35 13 -68t36 -57.5t54.5 -40t66.5 -15.5q80 0 136 48.5t56 132.5v620q0 35 -13 68t-36.5 57.5t-55.5 39.5t-69 15q-78 0 -133 -49t-55 -131v-620zM721 115q43 25 80 61v752q-37 37 -80 61 q35 -57 35 -123v-628q0 -33 -9.5 -64t-25.5 -59zM860 178q23 -20 47 -39t51 -35q-20 29 -31.5 64t-11.5 70v628q0 35 10.5 68t30.5 59q-53 -29 -96 -71v-744zM977 594h362v268q0 35 -13 68t-36.5 57.5t-54.5 39.5t-66 15q-80 0 -136 -48t-56 -132v-268zM1391 928 q8 -27 8 -66v-268h45v174q0 90 -53 160zM1481 885q16 -41 20 -84t4 -86q0 -31 -1 -61.5t-1 -59.5h56v59q0 131 -78 232z" />
<glyph unicode="&#x178;" d="M49 1466v60h467v-60h-110v-667q0 -74 52 -126t126 -52q37 0 68.5 14t56 38.5t38 56.5t13.5 69v667h-109v60h465v-60h-78v-469q0 -74 -23.5 -140t-65.5 -121.5t-100 -96.5t-128 -61v-519h108v-59h-493v59h108v519q-72 20 -129 61t-99 96.5t-64.5 122t-22.5 139.5v469h-80z M188 997q0 -80 32 -152.5t91 -125.5q-35 53 -54 114.5t-19 127.5v505h-50v-469zM297 961q0 -100 49 -187v692h-49v-505zM414 1620q0 33 22.5 55.5t55.5 22.5t55.5 -22.5t22.5 -55.5t-22.5 -55.5t-55.5 -22.5t-55.5 22.5t-22.5 55.5zM474 1620q0 -8 4 -12q6 -6 14 -6t12 4 q6 6 6 14t-4 12q-6 6 -14 7q-8 0 -12 -5q-6 -6 -6 -14zM504 59h49v502q-10 2 -31 2l-6 2h-12v-506zM596 1620q0 33 22.5 55.5t55.5 22.5t55.5 -22.5t22.5 -55.5t-22.5 -55.5t-55.5 -22.5t-55.5 22.5t-22.5 55.5zM612 59h50v506l-9 -2q-10 -2 -28 -2h-13v-502zM656 1620 q0 -8 4 -12q6 -6 14 -6t13 4q6 6 6 14t-4 12q-6 6 -15 7q-8 0 -12 -5q-6 -6 -6 -14zM819 774q49 86 49 187v505h-49v-692zM854 719q59 53 92 126t33 152v469h-51v-436q0 -84 -12.5 -161.5t-61.5 -149.5z" />
<glyph unicode="&#x2c6;" horiz-adv-x="604" d="M49 1178l254 190l252 -190l-16 -54h-154l-82 62l-82 -62h-153zM158 1184h45l100 76l100 -76h46l-146 110z" />
<glyph unicode="&#x2dc;" horiz-adv-x="649" d="M49 1208q0 39 15.5 71t41 53.5t58.5 32.5t69 11q20 0 57.5 -13t75 -29.5t71.5 -30t46 -13.5q16 0 32.5 15.5t16.5 33.5q0 6 -4 15l56 20q16 -31 16 -71q0 -39 -15.5 -71t-41 -53.5t-58 -32.5t-69.5 -11q-20 0 -55 13t-73 29.5t-72 30t-50 13.5q-18 0 -33.5 -16.5 t-15.5 -33.5q0 -6 4 -14l-55 -20q-16 37 -17 71zM131 1272q18 6 37 6q29 0 62.5 -13.5t69.5 -28.5t69.5 -28.5t60.5 -13.5t50.5 12.5t39.5 32.5q-18 -6 -39 -6q-29 0 -61.5 13.5t-66.5 28.5t-67.5 28.5t-64.5 13.5q-57 0 -90 -45z" />
<glyph unicode="&#x2000;" horiz-adv-x="921" />
<glyph unicode="&#x2001;" horiz-adv-x="1842" />
<glyph unicode="&#x2002;" horiz-adv-x="921" />
<glyph unicode="&#x2003;" horiz-adv-x="1842" />
<glyph unicode="&#x2004;" horiz-adv-x="614" />
<glyph unicode="&#x2005;" horiz-adv-x="460" />
<glyph unicode="&#x2006;" horiz-adv-x="307" />
<glyph unicode="&#x2007;" horiz-adv-x="307" />
<glyph unicode="&#x2008;" horiz-adv-x="230" />
<glyph unicode="&#x2009;" horiz-adv-x="368" />
<glyph unicode="&#x200a;" horiz-adv-x="102" />
<glyph unicode="&#x2010;" horiz-adv-x="573" d="M49 592v276h475v-276h-475zM109 651h356v49h-356v-49zM109 760h356v49h-356v-49z" />
<glyph unicode="&#x2011;" horiz-adv-x="573" d="M49 592v276h475v-276h-475zM109 651h356v49h-356v-49zM109 760h356v49h-356v-49z" />
<glyph unicode="&#x2012;" horiz-adv-x="573" d="M49 592v276h475v-276h-475zM109 651h356v49h-356v-49zM109 760h356v49h-356v-49z" />
<glyph unicode="&#x2013;" horiz-adv-x="778" d="M49 592v276h680v-276h-680zM109 651h561v49h-561v-49zM109 760h561v49h-561v-49z" />
<glyph unicode="&#x2014;" horiz-adv-x="1290" d="M49 592v276h1192v-276h-1192zM109 651h1073v49h-1073v-49zM109 760h1073v49h-1073v-49z" />
<glyph unicode="&#x2018;" horiz-adv-x="401" d="M49 1165l234 359h69v-359h-303zM160 1225h30l33 100zM254 1225h37v116z" />
<glyph unicode="&#x2019;" horiz-adv-x="401" d="M49 1167v359h303l-233 -359h-70zM111 1350l36 116h-36v-116zM178 1366l64 100h-31z" />
<glyph unicode="&#x201a;" horiz-adv-x="401" d="M49 -158v359h303l-233 -359h-70zM111 25l36 116h-36v-116zM178 41l64 100h-31z" />
<glyph unicode="&#x201c;" horiz-adv-x="647" d="M49 1186l234 358h69v-270l176 270h70v-358h-549zM160 1245h30l33 101zM254 1245h37v117zM406 1245h30l33 101zM500 1245h37v117z" />
<glyph unicode="&#x201d;" horiz-adv-x="647" d="M49 1167v359h549l-233 -359h-70v271l-176 -271h-70zM111 1350l36 116h-36v-116zM178 1366l64 100h-31zM356 1350l37 116h-37v-116zM424 1366l63 100h-30z" />
<glyph unicode="&#x201e;" horiz-adv-x="647" d="M49 -164v359h549l-233 -359h-70v270l-176 -270h-70zM111 18l36 117h-36v-117zM178 35l64 100h-31zM356 18l37 117h-37v-117zM424 35l63 100h-30z" />
<glyph unicode="&#x2022;" horiz-adv-x="1271" d="M49 860l383 88l203 338l203 -338l385 -88l-258 -297l32 -393l-362 154l-363 -154l35 393zM158 823l211 -241l-29 -318l295 125l295 -125l-29 318l211 241l-311 74l-166 274l-166 -274zM225 803l269 61l141 236l141 -236l268 -61l-180 -207l25 -274l-254 106l-252 -106 l23 274zM336 766l131 -152l-16 -200l184 80l184 -80l-16 200l131 152l-195 45l-104 172l-105 -172zM403 743l152 37l80 133l80 -133q39 -10 76.5 -18t74.5 -19l-102 -116l14 -154l-143 59l-143 -59l14 154zM514 709l53 -62l-8 -82l76 33l76 -33l-9 82l56 62l-80 18l-43 70 l-43 -70z" />
<glyph unicode="&#x2026;" horiz-adv-x="1030" d="M49 111q0 59 41 98t98 39q59 0 98.5 -39t39.5 -98t-39 -98.5t-99 -39.5q-57 0 -98 39t-41 99zM109 111q0 -25 13 -44.5t36 -29.5v145q-23 -10 -36 -29.5t-13 -41.5zM217 37q23 10 36 29.5t13 44.5t-13 44t-36 27v-145zM377 111q0 59 41 98t98 39q59 0 98 -39t39 -98 t-39 -98.5t-98 -39.5q-57 0 -98 39t-41 99zM436 111q0 -25 13.5 -44.5t35.5 -29.5v145q-23 -10 -36 -29.5t-13 -41.5zM545 37q23 10 36 29.5t13 44.5t-13.5 44t-35.5 27v-145zM705 111q0 59 40.5 98t98.5 39q59 0 98 -39t39 -98t-39 -98.5t-98 -39.5q-57 0 -98 39t-41 99z M764 111q0 -25 13.5 -44.5t35.5 -29.5v145q-23 -10 -36 -29.5t-13 -41.5zM872 37q23 10 36.5 29.5t13.5 44.5t-13.5 44t-36.5 27v-145z" />
<glyph unicode="&#x202f;" horiz-adv-x="368" />
<glyph unicode="&#x2039;" horiz-adv-x="557" d="M49 807l297 297l162 -162l-133 -135l133 -135l-162 -162zM133 807l213 -213l19 18l-195 195l195 194l-19 19zM254 807l152 -152l18 17l-133 135l133 135l-18 16z" />
<glyph unicode="&#x203a;" horiz-adv-x="557" d="M49 672l133 135l-133 135l162 162l297 -297l-297 -297zM133 672l19 -17l151 152l-151 151l-19 -16l133 -135zM193 612l18 -18l213 213l-213 213l-18 -19l194 -194z" />
<glyph unicode="&#x205f;" horiz-adv-x="460" />
<glyph unicode="&#x20ac;" horiz-adv-x="1028" d="M49 672l25 61h84v60h-109l25 59h84v238q0 98 35.5 178t97 137t144.5 89t177 32q106 0 181 -50.5t125 -142.5v162h61v-498h-61q0 47 -2.5 95.5t-8.5 95.5q-6 55 -31.5 105t-64.5 89t-90 61.5t-109 22.5q-74 0 -126 -52t-52 -126v-436h393l-24 -59h-369v-60h344l-24 -61 h-320v-434q0 -74 52.5 -126.5t125.5 -52.5q57 0 108.5 22.5t90.5 61.5t64.5 89.5t31.5 105.5q6 47 8.5 93t2.5 93h61v-499h-61v168q-49 -92 -124 -142.5t-182 -50.5q-94 0 -177 31.5t-144.5 89t-97 137.5t-35.5 178v236h-109zM217 436q0 -98 47 -186v1024q-25 -41 -36 -89 t-11 -95v-654zM324 174q20 -20 42.5 -38t49.5 -32q-41 57 -41 129v1059q0 72 41 129q-27 -14 -49.5 -31.5t-42.5 -37.5v-1178z" />
<glyph unicode="&#x2122;" horiz-adv-x="921" d="M49 1380v131h285v-131h-21v111h-75v-477h36v-21h-168v21h37v477h-73v-111h-21zM164 1014h16v477h-16v-477zM201 1014h16v477h-16v-477zM367 993v21h24v368q0 59 41 96.5t100 37.5q51 0 89 -31q35 31 79 31q59 0 104.5 -34t45.5 -100v-368h22v-21h-147v21h29v438 q0 43 -43 43q-20 0 -31.5 -12.5t-11.5 -30.5v-438h39v-21h-164v21h30v438q0 43 -45 43q-18 0 -30.5 -12.5t-12.5 -30.5v-438h31v-21h-149zM412 1014h16v381q1 42 21 71q-37 -31 -37 -84v-368zM449 1014h16v440q-16 -23 -16 -59v-381zM584 1485q10 -16 10 -33v-438h16v452 q-6 6 -12 10.5t-14 8.5zM631 1014h16v438q0 19 8 33q-6 -4 -13 -8t-11 -11v-452zM774 1014h17v381q0 35 -17 59v-440zM788 1468q23 -29 23 -73v-381h18v368q0 51 -41 86z" />
<glyph unicode="&#xe000;" horiz-adv-x="1105" d="M0 0v1106h1106v-1106h-1106z" />
</font>
</defs>
</svg>
